<?xml version="1.0" encoding="UTF-8" standalone="no"?>
<svg
   xmlns:dc="http://purl.org/dc/elements/1.1/"
   xmlns:cc="http://creativecommons.org/ns#"
   xmlns:rdf="http://www.w3.org/1999/02/22-rdf-syntax-ns#"
   xmlns:svg="http://www.w3.org/2000/svg"
   xmlns="http://www.w3.org/2000/svg"
   xmlns:sodipodi="http://sodipodi.sourceforge.net/DTD/sodipodi-0.dtd"
   xmlns:inkscape="http://www.inkscape.org/namespaces/inkscape"
   width="40px"
   height="37px"
   viewBox="0 0 40 37"
   version="1.1"
   id="svg30"
   sodipodi:docname="anonym.svg"
   inkscape:version="0.92.3 (2405546, 2018-03-11)">
  <metadata
     id="metadata34">
    <rdf:RDF>
      <cc:Work
         rdf:about="">
        <dc:format>image/svg+xml</dc:format>
        <dc:type
           rdf:resource="http://purl.org/dc/dcmitype/StillImage" />
      </cc:Work>
    </rdf:RDF>
  </metadata>
  <sodipodi:namedview
     pagecolor="#ffffff"
     bordercolor="#666666"
     borderopacity="1"
     objecttolerance="10"
     gridtolerance="10"
     guidetolerance="10"
     inkscape:pageopacity="0"
     inkscape:pageshadow="2"
     inkscape:window-width="1366"
     inkscape:window-height="705"
     id="namedview32"
     showgrid="false"
     inkscape:zoom="6.3783784"
     inkscape:cx="20"
     inkscape:cy="18.5"
     inkscape:window-x="0"
     inkscape:window-y="354"
     inkscape:window-maximized="1"
     inkscape:current-layer="step_2" />
  <!-- Generator: Sketch 48.2 (47327) - http://www.bohemiancoding.com/sketch -->
  <title
     id="title2">anonym2</title>
  <desc
     id="desc4">Created with Sketch.</desc>
  <defs
     id="defs6" />
  <g
     id="step_2"
     stroke="none"
     stroke-width="1"
     fill="none"
     fill-rule="evenodd"
     transform="translate(-390.000000, -374.000000)">
    <g
       id="white-bg"
       transform="translate(330.000000, 102.000000)"
       fill="#5A81EA"
       style="fill:#81d742;fill-opacity:1">
      <g
         id="left"
         transform="translate(55.000000, 271.000000)"
         style="fill:#81d742;fill-opacity:1">
        <g
           id="Line-1"
           transform="translate(5.000000, 0.000000)"
           style="fill:#81d742;fill-opacity:1">
          <g
             id="anonym2"
             transform="translate(0.000000, 1.500000)"
             style="fill:#81d742;fill-opacity:1">
            <rect
               id="Rectangle-10"
               x="0"
               y="14.5"
               width="30.0713501"
               height="2"
               style="fill:#81d742;fill-opacity:1" />
            <polygon
               id="polygon9"
               points="4.80004883 14.5360107 14.1578674 0.140594482 20.2237549 6.95648193 27.6240234 0.48626709 36.0686035 18.182373 33.8312988 18.182373 26.9671021 3.70178223 20.0291748 9.7779541 14.4073181 3.43319702 6.77490234 15.1627197"
               style="fill:#81d742;fill-opacity:1" />
            <rect
               id="rect11"
               x="0"
               y="18"
               width="40"
               height="2"
               style="fill:#81d742;fill-opacity:1" />
            <polygon
               id="polygon13"
               points="0 18 20.0423584 22 40 18 40 20 19.9920654 24 0 20"
               style="fill:#81d742;fill-opacity:1" />
            <g
               id="Group-8"
               transform="translate(3.500000, 24.000000)"
               style="fill:#81d742;fill-opacity:1">
              <rect
                 id="rect15"
                 x="0"
                 y="5"
                 width="3"
                 height="2"
                 style="fill:#81d742;fill-opacity:1" />
              <rect
                 id="rect17"
                 x="30"
                 y="5"
                 width="3"
                 height="2"
                 style="fill:#81d742;fill-opacity:1" />
              <path
                 d="M13.2926941,5.06005859 C14.2944139,4.60064697 15.2950242,4.37094116 16.2945251,4.37094116 C17.2940261,4.37094116 18.2934157,4.60064697 19.2926941,5.06005859 L19.2926941,7.06005859 C18.2540563,6.60064697 17.2403437,6.37094116 16.2515564,6.37094116 C15.2627691,6.37094116 14.2764816,6.60064697 13.2926941,7.06005859 L13.2926941,5.06005859 Z"
                 id="path19"
                 style="fill:#81d742;fill-opacity:1" />
              <path
                 d="M8,12.5 C4.6862915,12.5 2,9.8137085 2,6.5 C2,3.1862915 4.6862915,0.5 8,0.5 C11.3137085,0.5 14,3.1862915 14,6.5 C14,9.8137085 11.3137085,12.5 8,12.5 Z M8.0049272,10.8636364 C10.414897,10.8636364 12.3685636,8.90996982 12.3685636,6.5 C12.3685636,4.09003018 10.414897,2.13636364 8.0049272,2.13636364 C5.59495738,2.13636364 3.64129084,4.09003018 3.64129084,6.5 C3.64129084,8.90996982 5.59495738,10.8636364 8.0049272,10.8636364 Z"
                 id="Oval"
                 style="fill:#81d742;fill-opacity:1" />
              <path
                 d="M25,12.5 C21.6862915,12.5 19,9.8137085 19,6.5 C19,3.1862915 21.6862915,0.5 25,0.5 C28.3137085,0.5 31,3.1862915 31,6.5 C31,9.8137085 28.3137085,12.5 25,12.5 Z M25.0049272,10.8636364 C27.414897,10.8636364 29.3685636,8.90996982 29.3685636,6.5 C29.3685636,4.09003018 27.414897,2.13636364 25.0049272,2.13636364 C22.5949574,2.13636364 20.6412908,4.09003018 20.6412908,6.5 C20.6412908,8.90996982 22.5949574,10.8636364 25.0049272,10.8636364 Z"
                 id="path22"
                 style="fill:#81d742;fill-opacity:1" />
            </g>
          </g>
        </g>
      </g>
    </g>
  </g>
</svg>
