<?xml version="1.0" encoding="UTF-8" standalone="no"?>
<svg
   xmlns:dc="http://purl.org/dc/elements/1.1/"
   xmlns:cc="http://creativecommons.org/ns#"
   xmlns:rdf="http://www.w3.org/1999/02/22-rdf-syntax-ns#"
   xmlns:svg="http://www.w3.org/2000/svg"
   xmlns="http://www.w3.org/2000/svg"
   xmlns:sodipodi="http://sodipodi.sourceforge.net/DTD/sodipodi-0.dtd"
   xmlns:inkscape="http://www.inkscape.org/namespaces/inkscape"
   width="41px"
   height="36px"
   viewBox="0 0 41 36"
   version="1.1"
   id="svg42"
   sodipodi:docname="os.svg"
   inkscape:version="0.92.3 (2405546, 2018-03-11)">
  <metadata
     id="metadata46">
    <rdf:RDF>
      <cc:Work
         rdf:about="">
        <dc:format>image/svg+xml</dc:format>
        <dc:type
           rdf:resource="http://purl.org/dc/dcmitype/StillImage" />
      </cc:Work>
    </rdf:RDF>
  </metadata>
  <sodipodi:namedview
     pagecolor="#ffffff"
     bordercolor="#666666"
     borderopacity="1"
     objecttolerance="10"
     gridtolerance="10"
     guidetolerance="10"
     inkscape:pageopacity="0"
     inkscape:pageshadow="2"
     inkscape:window-width="1366"
     inkscape:window-height="705"
     id="namedview44"
     showgrid="false"
     inkscape:zoom="6.5555556"
     inkscape:cx="29.5"
     inkscape:cy="18"
     inkscape:window-x="0"
     inkscape:window-y="354"
     inkscape:window-maximized="1"
     inkscape:current-layer="LINE-4" />
  <!-- Generator: Sketch 48.2 (47327) - http://www.bohemiancoding.com/sketch -->
  <title
     id="title2">OS</title>
  <desc
     id="desc4">Created with Sketch.</desc>
  <defs
     id="defs6" />
  <g
     id="step_3"
     stroke="none"
     stroke-width="1"
     fill="none"
     fill-rule="evenodd"
     transform="translate(-390.000000, -496.000000)">
    <g
       id="white-bg"
       transform="translate(330.000000, 102.000000)">
      <g
         id="left"
         transform="translate(55.000000, 231.000000)">
        <g
           id="LINE-4"
           transform="translate(0.000000, 160.000000)">
          <path
             style="stroke:#5a81ea;stroke-width:2;stroke-linecap:square"
             inkscape:connector-curvature="0"
             id="Line"
             d="M 6,6 V 36.49459" />
          <path
             style="stroke:#5a81ea;stroke-width:2;stroke-linecap:square"
             inkscape:connector-curvature="0"
             id="path9"
             d="M 31,6 V 36.49459" />
          <path
             style="stroke:#5a81ea;stroke-width:2;stroke-linecap:square"
             inkscape:connector-curvature="0"
             id="path11"
             d="M 6,4.8 H 31" />
          <path
             style="stroke:#5a81ea;stroke-width:2;stroke-linecap:square"
             inkscape:connector-curvature="0"
             id="path13"
             d="M 6,37.6 H 31" />
          <rect
             style="fill:#81d742;fill-opacity:1"
             height="2"
             width="27"
             y="3.7999878"
             x="5"
             id="Rectangle-10" />
          <rect
             style="fill:#81d742;fill-opacity:1"
             height="2"
             width="31.53595"
             y="-7.0024409"
             x="5.4640508"
             transform="rotate(90)"
             id="rect16" />
          <rect
             style="fill:#81d742;fill-opacity:1"
             height="2"
             width="31.53595"
             y="-32.002441"
             x="5.4640508"
             transform="rotate(90)"
             id="rect18" />
          <rect
             style="fill:#81d742;fill-opacity:1"
             height="2"
             width="27"
             y="36.600006"
             x="5"
             id="rect20" />
          <g
             style="fill:#81d742;fill-opacity:1"
             transform="translate(31,7)"
             id="Group-4">
            <g
               transform="translate(0,1)"
               id="disc"
               style="fill:#81d742;fill-opacity:1">
              <path
                 inkscape:connector-curvature="0"
                 id="Oval"
                 d="M 1,15.5 C 1.046418,15.499318 1.081103,15.4983 1.1040545,15.497 2.0221129,15.443123 2.75,14.681565 2.75,13.75 2.75,12.816466 2.0190325,12.053658 1.0982302,12.00271 1.0657156,12.000911 1,12 1,12 c 0,0 0,0.583333 0,1.75 z"
                 style="fill:#81d742;fill-opacity:1" />
              <path
                 style="fill-rule:nonzero;fill:#81d742;fill-opacity:1"
                 inkscape:connector-curvature="0"
                 id="Shape"
                 d="M 9.1892969,11.414453 C 8.696875,9.1332031 7.2460937,7.1607813 5.2089844,6.0030469 4.9275781,5.8432031 4.5699219,5.9416406 4.41,6.2228906 4.2500781,6.5042969 4.3485156,6.8619531 4.6298437,7.021875 6.3772656,8.015 7.6216406,9.7061719 8.0438281,11.661797 c 0.059297,0.274687 0.3021875,0.462422 0.5721875,0.462422 0.040938,0 0.082578,-0.0044 0.1242188,-0.01336 0.3163281,-0.06828 0.5173437,-0.380078 0.4490625,-0.696406 z" />
              <path
                 style="fill-rule:nonzero;fill:#81d742;fill-opacity:1"
                 inkscape:connector-curvature="0"
                 id="path24"
                 d="M 11.621641,11.631719 C 11.331797,9.8085938 10.570234,8.0777344 9.4192969,6.6261719 8.2841406,5.1946094 6.7971094,4.0658594 5.1189062,3.3620312 4.8204687,3.236875 4.4771094,3.3773438 4.3519531,3.6757813 c -0.1251562,0.2983593 0.015312,0.6417968 0.31375,0.7668749 3.0575,1.2823438 5.2794532,4.1075001 5.7987499,7.3731248 0.04586,0.288438 0.294844,0.493985 0.577891,0.493985 0.03063,0 0.06156,-0.0023 0.09273,-0.0073 0.319531,-0.05078 0.537422,-0.351094 0.486563,-0.670703 z" />
            </g>
            <path
               inkscape:connector-curvature="0"
               transform="rotate(90,7.995712,14.510773)"
               id="path27"
               d="m -6.5122528,21.51506 c 1.616333,-9.33905 6.43591308,-14.008575 14.4587402,-14.008575 8.0228276,0 12.8752236,4.66687 14.5571896,14.00061 H 20.489548 C 18.898666,13.506688 14.73201,9.506485 7.9895782,9.506485 c -6.7424316,0 -10.9120178,4.000203 -12.5087585,12.00061 z"
               style="fill:#81d742;fill-opacity:1" />
            <path
               inkscape:connector-curvature="0"
               transform="rotate(90,3.998657,14.507896)"
               id="path29"
               d="m -2.5100632,17.509239 c 0.9552206,-4.00179 3.10934451,-6.002685 6.4623719,-6.002685 3.3530273,0 5.5380503,1.99824 6.5550693,5.99472 H 8.4900894 c -0.7336833,-2.663147 -2.2319132,-3.99472 -4.4946899,-3.99472 -2.2627767,0 -3.76466881,1.331573 -4.50567629,3.99472 z"
               style="fill:#81d742;fill-opacity:1" />
          </g>
          <g
             style="fill:#81d742;fill-rule:nonzero;fill-opacity:1"
             transform="translate(10.6,16)"
             id="Group-2">
            <path
               inkscape:connector-curvature="0"
               id="path32"
               d="m 3.3805469,0.12710938 c -1.7003125,0 -2.9989844,0.81664062 -2.9989844,2.98562502 V 7.00875 c 0,2.1689063 1.2986719,2.985625 2.9989844,2.985625 C 5.0675,9.9942969 6.3929687,9.1775781 6.3929687,7.00875 V 3.1127344 C 6.3929687,0.94375 5.0675,0.12710938 3.3805469,0.12710938 Z M 4.9738281,7.00875 c 0,1.1782031 -0.6024219,1.7270313 -1.5932031,1.7270313 -1.0041406,0 -1.5798438,-0.5488282 -1.5798438,-1.7270313 V 3.1127344 c 0,-1.1782032 0.5757032,-1.7271094 1.5798438,-1.7271094 0.9907812,0 1.5932031,0.5489062 1.5932031,1.7271094 z"
               style="fill:#81d742;fill-opacity:1" />
            <path
               inkscape:connector-curvature="0"
               id="path34"
               d="m 9.4189844,2.5236719 c 0,-0.8435157 0.6962496,-1.2183594 1.6735156,-1.2183594 1.138047,0 1.486094,0.50875 1.847578,0.50875 0.401641,0 0.589141,-0.4953906 0.589141,-0.7632031 0,-0.73632815 -1.566485,-0.9639844 -2.436719,-0.9639844 -1.4325,0 -3.0926563,0.58914063 -3.0926563,2.5705469 0,3.2132812 4.3511723,2.2894531 4.3511723,4.6592187 0,0.9639844 -0.722969,1.4191407 -1.686953,1.4191407 -1.4860942,0 -1.8074224,-1.0576563 -2.2893755,-1.0576563 -0.3347656,0 -0.6158594,0.4417969 -0.6158594,0.7632031 0,0.669375 1.2183594,1.5798439 2.9588279,1.5798439 1.767266,0 3.052578,-0.9371876 3.052578,-2.8517189 0,-3.5613281 -4.3512496,-2.664375 -4.3512496,-4.6457812 z"
               style="fill:#81d742;fill-opacity:1" />
          </g>
        </g>
      </g>
    </g>
  </g>
</svg>
