<?xml version="1.0" encoding="UTF-8" standalone="no"?>
<svg
   xmlns:dc="http://purl.org/dc/elements/1.1/"
   xmlns:cc="http://creativecommons.org/ns#"
   xmlns:rdf="http://www.w3.org/1999/02/22-rdf-syntax-ns#"
   xmlns:svg="http://www.w3.org/2000/svg"
   xmlns="http://www.w3.org/2000/svg"
   xmlns:sodipodi="http://sodipodi.sourceforge.net/DTD/sodipodi-0.dtd"
   xmlns:inkscape="http://www.inkscape.org/namespaces/inkscape"
   width="39px"
   height="33px"
   viewBox="0 0 39 33"
   version="1.1"
   id="svg29"
   sodipodi:docname="refresh.svg"
   inkscape:version="0.92.3 (2405546, 2018-03-11)">
  <metadata
     id="metadata33">
    <rdf:RDF>
      <cc:Work
         rdf:about="">
        <dc:format>image/svg+xml</dc:format>
        <dc:type
           rdf:resource="http://purl.org/dc/dcmitype/StillImage" />
      </cc:Work>
    </rdf:RDF>
  </metadata>
  <sodipodi:namedview
     pagecolor="#ffffff"
     bordercolor="#666666"
     borderopacity="1"
     objecttolerance="10"
     gridtolerance="10"
     guidetolerance="10"
     inkscape:pageopacity="0"
     inkscape:pageshadow="2"
     inkscape:window-width="1366"
     inkscape:window-height="705"
     id="namedview31"
     showgrid="false"
     inkscape:zoom="7.1515152"
     inkscape:cx="19.5"
     inkscape:cy="16.5"
     inkscape:window-x="0"
     inkscape:window-y="354"
     inkscape:window-maximized="1"
     inkscape:current-layer="step_3" />
  <!-- Generator: Sketch 48.2 (47327) - http://www.bohemiancoding.com/sketch -->
  <title
     id="title2">browser</title>
  <desc
     id="desc4">Created with Sketch.</desc>
  <defs
     id="defs6" />
  <g
     id="step_3"
     stroke="none"
     stroke-width="1"
     fill="none"
     fill-rule="evenodd"
     transform="translate(-740.000000, -417.000000)">
    <g
       id="white-bg"
       transform="translate(330.000000, 102.000000)"
       fill="#5A81EA"
       style="fill:#81d742;fill-opacity:1">
      <g
         id="right"
         transform="translate(405.000000, 230.000000)"
         style="fill:#81d742;fill-opacity:1">
        <g
           id="LINE-5"
           transform="translate(4.000000, 81.000000)"
           style="fill:#81d742;fill-opacity:1">
          <g
             id="browser"
             transform="translate(1.000000, 4.000000)"
             style="fill:#81d742;fill-opacity:1">
            <rect
               id="Rectangle"
               x="0"
               y="1"
               width="39"
               height="2"
               style="fill:#81d742;fill-opacity:1" />
            <g
               id="update"
               transform="translate(12.846154, 13.307692)"
               fill-rule="nonzero"
               style="fill:#81d742;fill-opacity:1">
              <path
                 d="M1.73663614,6.2035727 L3.52215507,5.08994194 C3.82603785,4.90037673 3.7490293,4.43813644 3.40010379,4.35741299 L2.71398046,4.19856005 C3.32838828,2.65381629 4.83794261,1.58334871 6.57260684,1.58334871 C8.27696581,1.58334871 9.78973748,2.60453141 10.4263553,4.18486404 C10.5869109,4.58350089 11.0404518,4.77638635 11.4391941,4.61597703 C11.8379365,4.45546396 12.0310806,4.00204307 11.8704212,3.60340622 C10.9952015,1.43082498 8.91565934,0.0268803419 6.57260684,0.0268803419 C4.10594628,0.0268803419 1.97025641,1.60161006 1.18470696,3.84433146 L0.500555556,3.68589354 C0.151630037,3.60506634 -0.120805861,3.98637567 0.0687057387,4.29017804 L1.18263126,6.07522449 C1.30021978,6.26364837 1.54816239,6.3211301 1.73663614,6.2035727 Z"
                 id="Shape"
                 style="fill:#81d742;fill-opacity:1" />
              <path
                 d="M12.9926496,7.62457265 L11.9128694,5.81819292 C11.7989133,5.62764347 11.5521123,5.56547619 11.3614591,5.67943223 L9.55507937,6.75921245 C9.24766789,6.94301587 9.3158547,7.40672772 9.66322344,7.49411477 L10.3533944,7.66785104 C9.66727106,9.10485958 8.19518315,10.0500305 6.532442,10.0198291 C4.89554335,9.99014652 3.42397436,8.99713065 2.78351648,7.4897558 C2.61538462,7.09412698 2.1584188,6.90949328 1.7626862,7.07772894 C1.36705739,7.24586081 1.18263126,7.70282662 1.35065934,8.09855922 C2.23096459,10.1704212 4.25394383,11.5356105 6.50421245,11.576398 C6.53981074,11.5770208 6.57499389,11.5773321 6.61038462,11.5773321 C8.96371184,11.5773321 11.0197985,10.1587973 11.8847436,8.0534127 L12.5491758,8.22071429 C12.8967521,8.30820513 13.176453,7.93208791 12.9926496,7.62457265 Z"
                 id="path10"
                 style="fill:#81d742;fill-opacity:1" />
            </g>
            <rect
               id="rect13"
               x="0"
               y="6.6980057"
               width="34.9002849"
               height="2"
               style="fill:#81d742;fill-opacity:1" />
            <rect
               id="Rectangle-2"
               x="33.5"
               y="4"
               width="1.42450142"
               height="1.42450142"
               style="fill:#81d742;fill-opacity:1" />
            <rect
               id="rect16"
               x="31"
               y="4"
               width="1.42450142"
               height="1.42450142"
               style="fill:#81d742;fill-opacity:1" />
            <rect
               id="rect18"
               x="0"
               y="30.9145299"
               width="39"
               height="2"
               style="fill:#81d742;fill-opacity:1" />
            <polygon
               id="polygon20"
               transform="translate(38.000000, 16.957265) rotate(90.000000) translate(-38.000000, -16.957265) "
               points="22.3304843 15.957265 53.6695157 15.957265 53.6695157 17.957265 22.3304843 17.957265"
               style="fill:#81d742;fill-opacity:1" />
            <polygon
               id="polygon22"
               transform="translate(1.000000, 16.957265) rotate(90.000000) translate(-1.000000, -16.957265) "
               points="-15 15.957265 17 15.957265 17 17.957265 -15 17.957265"
               style="fill:#81d742;fill-opacity:1" />
          </g>
        </g>
      </g>
    </g>
  </g>
</svg>
