<?xml version="1.0" encoding="UTF-8" standalone="no"?>
<svg
   xmlns:dc="http://purl.org/dc/elements/1.1/"
   xmlns:cc="http://creativecommons.org/ns#"
   xmlns:rdf="http://www.w3.org/1999/02/22-rdf-syntax-ns#"
   xmlns:svg="http://www.w3.org/2000/svg"
   xmlns="http://www.w3.org/2000/svg"
   xmlns:sodipodi="http://sodipodi.sourceforge.net/DTD/sodipodi-0.dtd"
   xmlns:inkscape="http://www.inkscape.org/namespaces/inkscape"
   width="100px"
   height="21px"
   viewBox="0 0 100 21"
   version="1.1"
   id="svg21"
   sodipodi:docname="tn_logo.svg"
   inkscape:version="0.92.3 (2405546, 2018-03-11)">
  <metadata
     id="metadata25">
    <rdf:RDF>
      <cc:Work
         rdf:about="">
        <dc:format>image/svg+xml</dc:format>
        <dc:type
           rdf:resource="http://purl.org/dc/dcmitype/StillImage" />
        <dc:title>waves_logo</dc:title>
      </cc:Work>
    </rdf:RDF>
  </metadata>
  <sodipodi:namedview
     pagecolor="#ffffff"
     bordercolor="#666666"
     borderopacity="1"
     objecttolerance="10"
     gridtolerance="10"
     guidetolerance="10"
     inkscape:pageopacity="0"
     inkscape:pageshadow="2"
     inkscape:window-width="1366"
     inkscape:window-height="705"
     id="namedview23"
     showgrid="false"
     inkscape:pagecheckerboard="true"
     inkscape:zoom="4.72"
     inkscape:cx="39.550842"
     inkscape:cy="1.9674129"
     inkscape:window-x="0"
     inkscape:window-y="354"
     inkscape:window-maximized="1"
     inkscape:current-layer="flowRoot832" />
  <!-- Generator: Sketch 48 (47235) - http://www.bohemiancoding.com/sketch -->
  <title
     id="title2">waves_logo</title>
  <desc
     id="desc4">Created with Sketch.</desc>
  <defs
     id="defs6" />
  <g
     aria-label="TurtleNetwork"
     transform="matrix(1.1723299,0,0,1.1723299,64.367983,17.163511)"
     style="font-style:normal;font-weight:normal;font-size:13.33333302px;line-height:1.25;font-family:sans-serif;letter-spacing:0px;word-spacing:0px;fill:#000000;fill-opacity:1;stroke:none"
     id="flowRoot832">
    <path
       d="m -47.271485,-9.2130334 h -2.955729 v 8.1510415 h -1.634114 v -8.1510415 h -2.929688 v -1.3281246 h 7.519531 z"
       style="font-style:normal;font-variant:normal;font-weight:500;font-stretch:normal;font-family:Roboto;-inkscape-font-specification:'Roboto Medium';fill:#ffffff"
       id="path840" />
    <path
       d="m -42.323568,-1.7520961 q -0.696615,0.82031249 -1.979167,0.82031249 -1.145833,0 -1.738281,-0.67057289 -0.585937,-0.6705729 -0.585937,-1.9401041 v -4.563802 h 1.582031 v 4.5442707 q 0,1.3411458 1.113281,1.3411458 1.152344,0 1.55599,-0.8268229 v -5.0585936 h 1.582031 v 7.0442707 h -1.490885 z"
       style="font-style:normal;font-variant:normal;font-weight:500;font-stretch:normal;font-family:Roboto;-inkscape-font-specification:'Roboto Medium';fill:#ffffff"
       id="path842" />
    <path
       d="m -35.481121,-6.6609501 q -0.3125,-0.052083 -0.644531,-0.052083 -1.087239,0 -1.464843,0.8333333 v 4.8177083 h -1.582032 v -7.0442707 h 1.510417 l 0.03906,0.7877604 q 0.572917,-0.9179687 1.588542,-0.9179687 0.338542,0 0.559896,0.091146 z"
       style="font-style:normal;font-variant:normal;font-weight:500;font-stretch:normal;font-family:Roboto;-inkscape-font-specification:'Roboto Medium';fill:#ffffff"
       id="path844" />
    <path
       d="m -32.160809,-9.8185022 v 1.7122396 h 1.24349 v 1.171875 h -1.24349 v 3.9322915 q 0,0.4036459 0.15625,0.5859375 0.162761,0.1757813 0.572917,0.1757813 0.273438,0 0.553385,-0.065104 v 1.2239583 q -0.540364,0.14973959 -1.041666,0.14973959 -1.822917,0 -1.822917,-2.01171869 v -3.9908853 h -1.158854 v -1.171875 h 1.158854 v -1.7122396 z"
       style="font-style:normal;font-variant:normal;font-weight:500;font-stretch:normal;font-family:Roboto;-inkscape-font-specification:'Roboto Medium';fill:#ffffff"
       id="path846" />
    <path
       d="m -28.033204,-1.0619919 h -1.582031 V -11.061992 h 1.582031 z"
       style="font-style:normal;font-variant:normal;font-weight:500;font-stretch:normal;font-family:Roboto;-inkscape-font-specification:'Roboto Medium';fill:#ffffff"
       id="path848" />
    <path
       d="m -23.202474,-0.93178361 q -1.503906,0 -2.441406,-0.94401039 -0.93099,-0.9505208 -0.93099,-2.5260416 v -0.1953125 q 0,-1.0546875 0.403646,-1.8815104 0.410156,-0.8333333 1.145833,-1.2955729 0.735677,-0.4622395 1.640625,-0.4622395 1.438802,0 2.220052,0.9179687 0.787761,0.9179687 0.787761,2.5976562 v 0.6380208 h -4.602865 q 0.07162,0.8723958 0.579427,1.3802083 0.514323,0.5078125 1.289063,0.5078125 1.087239,0 1.770833,-0.8789062 l 0.852865,0.813802 q -0.423177,0.6315104 -1.132813,0.9830729 -0.703125,0.34505209 -1.582031,0.34505209 z m -0.188802,-6.03515609 q -0.651042,0 -1.054688,0.4557291 -0.397135,0.4557292 -0.507812,1.2695313 h 3.014323 v -0.1171875 q -0.05208,-0.7942709 -0.423177,-1.1979167 -0.371094,-0.4101562 -1.028646,-0.4101562 z"
       style="font-style:normal;font-variant:normal;font-weight:500;font-stretch:normal;font-family:Roboto;-inkscape-font-specification:'Roboto Medium';fill:#ffffff"
       id="path850" />
    <path
       d="m -11.470705,-1.0619919 h -1.647135 l -4.22526,-6.7252603 v 6.7252603 h -1.647136 v -9.4791661 h 1.647136 l 4.238281,6.7513015 v -6.7513015 h 1.634114 z"
       style="font-style:normal;font-variant:normal;font-weight:500;font-stretch:normal;font-family:Roboto;-inkscape-font-specification:'Roboto Medium';fill:#ffffff"
       id="path852" />
    <path
       d="m -6.5618491,-0.93178361 q -1.5039062,0 -2.4414061,-0.94401039 -0.9309896,-0.9505208 -0.9309896,-2.5260416 v -0.1953125 q 0,-1.0546875 0.4036458,-1.8815104 0.4101563,-0.8333333 1.1458333,-1.2955729 0.7356771,-0.4622395 1.640625,-0.4622395 1.438802,0 2.220052,0.9179687 0.7877604,0.9179687 0.7877604,2.5976562 v 0.6380208 h -4.6028645 q 0.071615,0.8723958 0.5794271,1.3802083 0.5143229,0.5078125 1.2890625,0.5078125 1.0872395,0 1.7708333,-0.8789062 l 0.8528645,0.813802 q -0.423177,0.6315104 -1.1328124,0.9830729 -0.703125,0.34505209 -1.5820313,0.34505209 z m -0.188802,-6.03515609 q -0.6510417,0 -1.0546875,0.4557291 -0.3971354,0.4557292 -0.5078125,1.2695313 h 3.0143229 v -0.1171875 q -0.052083,-0.7942709 -0.4231771,-1.1979167 -0.3710938,-0.4101562 -1.0286458,-0.4101562 z"
       style="font-style:normal;font-variant:normal;font-weight:500;font-stretch:normal;font-family:Roboto;-inkscape-font-specification:'Roboto Medium';fill:#ffffff"
       id="path854" />
    <path
       d="m -0.52018363,-9.8185022 v 1.7122396 h 1.24348955 v 1.171875 h -1.24348955 v 3.9322915 q 0,0.4036459 0.15625,0.5859375 0.16276041,0.1757813 0.57291665,0.1757813 0.27343749,0 0.5533854,-0.065104 v 1.2239583 q -0.54036457,0.14973959 -1.04166664,0.14973959 -1.82291658,0 -1.82291658,-2.01171869 V -6.9343876 H -3.261069 v -1.171875 h 1.1588542 v -1.7122396 z"
       style="font-style:normal;font-variant:normal;font-weight:500;font-stretch:normal;font-family:Roboto;-inkscape-font-specification:'Roboto Medium';fill:#ffffff"
       id="path856" />
    <path
       d="M 8.1126275,-3.2429815 9.2324191,-8.1062626 H 10.775388 L 8.854815,-1.0619919 H 7.5527317 L 6.042315,-5.8992314 4.5579401,-1.0619919 H 3.2558568 L 1.3287735,-8.1062626 h 1.5429687 l 1.1393229,4.8111978 1.4453125,-4.8111978 h 1.1914062 z"
       style="font-style:normal;font-variant:normal;font-weight:500;font-stretch:normal;font-family:Roboto;-inkscape-font-specification:'Roboto Medium';fill:#ffffff"
       id="path858" />
    <path
       d="m 11.550128,-4.6492314 q 0,-1.0351563 0.410156,-1.8619792 0.410156,-0.8333333 1.152344,-1.2760416 0.742187,-0.4492187 1.705729,-0.4492187 1.425781,0 2.311198,0.9179687 0.891927,0.9179687 0.963541,2.4348958 l 0.0065,0.3710937 q 0,1.0416666 -0.403646,1.8619791 -0.397136,0.8203125 -1.145833,1.2695312 -0.742188,0.44921879 -1.71875,0.44921879 -1.490886,0 -2.389323,-0.98958329 -0.891927,-0.9960938 -0.891927,-2.6497395 z m 1.582031,0.1367187 q 0,1.0872396 0.449219,1.7057291 0.449218,0.6119792 1.25,0.6119792 0.800781,0 1.243489,-0.625 0.449219,-0.625 0.449219,-1.829427 0,-1.0677084 -0.46224,-1.6927083 -0.455729,-0.625 -1.243489,-0.625 -0.77474,0 -1.230469,0.6184895 -0.455729,0.6119792 -0.455729,1.8359375 z"
       style="font-style:normal;font-variant:normal;font-weight:500;font-stretch:normal;font-family:Roboto;-inkscape-font-specification:'Roboto Medium';fill:#ffffff"
       id="path860" />
    <path
       d="m 23.138667,-6.6609501 q -0.3125,-0.052083 -0.644532,-0.052083 -1.087239,0 -1.464843,0.8333333 v 4.8177083 h -1.582031 v -7.0442707 h 1.510416 l 0.03906,0.7877604 q 0.572916,-0.9179687 1.588541,-0.9179687 0.338542,0 0.559896,0.091146 z"
       style="font-style:normal;font-variant:normal;font-weight:500;font-stretch:normal;font-family:Roboto;-inkscape-font-specification:'Roboto Medium';fill:#ffffff"
       id="path862" />
    <path
       d="m 26.426427,-4.0828252 -0.703125,0.7226562 v 2.2981771 H 24.141271 V -11.061992 h 1.582031 v 5.7682293 l 0.494792,-0.6184895 1.946614,-2.1940104 h 1.901042 l -2.617187,2.9361978 2.897135,4.1080729 h -1.829427 z"
       style="font-style:normal;font-variant:normal;font-weight:500;font-stretch:normal;font-family:Roboto;-inkscape-font-specification:'Roboto Medium';fill:#ffffff"
       id="path864" />
  </g>
</svg>
