<?xml version="1.0" encoding="UTF-8" standalone="no"?>
<svg
   xmlns:dc="http://purl.org/dc/elements/1.1/"
   xmlns:cc="http://creativecommons.org/ns#"
   xmlns:rdf="http://www.w3.org/1999/02/22-rdf-syntax-ns#"
   xmlns:svg="http://www.w3.org/2000/svg"
   xmlns="http://www.w3.org/2000/svg"
   xmlns:sodipodi="http://sodipodi.sourceforge.net/DTD/sodipodi-0.dtd"
   xmlns:inkscape="http://www.inkscape.org/namespaces/inkscape"
   width="80"
   height="80"
   viewBox="0 0 80 80"
   version="1.1"
   id="svg16"
   sodipodi:docname="bank-building-success.svg"
   inkscape:version="0.92.3 (2405546, 2018-03-11)">
  <metadata
     id="metadata22">
    <rdf:RDF>
      <cc:Work
         rdf:about="">
        <dc:format>image/svg+xml</dc:format>
        <dc:type
           rdf:resource="http://purl.org/dc/dcmitype/StillImage" />
      </cc:Work>
    </rdf:RDF>
  </metadata>
  <defs
     id="defs20" />
  <sodipodi:namedview
     pagecolor="#ffffff"
     bordercolor="#666666"
     borderopacity="1"
     objecttolerance="10"
     gridtolerance="10"
     guidetolerance="10"
     inkscape:pageopacity="0"
     inkscape:pageshadow="2"
     inkscape:window-width="1366"
     inkscape:window-height="705"
     id="namedview18"
     showgrid="false"
     inkscape:zoom="5.9"
     inkscape:cx="19.857834"
     inkscape:cy="35.243567"
     inkscape:window-x="0"
     inkscape:window-y="354"
     inkscape:window-maximized="1"
     inkscape:current-layer="g14" />
  <g
     fill="none"
     fill-rule="evenodd"
     id="g14">
    <path
       fill="none"
       d="M0 0h80v80H0z"
       id="path2" />
    <path
       fill="#4AAD02"
       d="M8.5 25h3v35h-3zM18.5 25h3v35h-3zM28.5 25h3v35h-3zM38.5 25h3v35h-3zM48.5 25h3v35h-3zM58.5 25h3v35h-3zM68.5 25h3v35h-3z"
       id="path4"
       style="fill:#81d742;fill-opacity:1" />
    <rect
       width="77"
       height="8"
       x="1.5"
       y="69.5"
       stroke="#4AAD02"
       stroke-width="3"
       rx="2"
       id="rect6"
       style="stroke:#81d742;stroke-opacity:1" />
    <rect
       width="69"
       height="8"
       x="5.5"
       y="61.5"
       stroke="#4AAD02"
       stroke-width="3"
       rx="2"
       id="rect8"
       style="stroke:#81d742;stroke-opacity:1" />
    <rect
       width="77"
       height="8"
       x="1.5"
       y="17.5"
       stroke="#4AAD02"
       stroke-width="3"
       rx="2"
       id="rect10"
       style="stroke:#81d742;stroke-opacity:1" />
    <path
       stroke="#4AAD02"
       stroke-width="3"
       d="M39.968 3.586c-13.704 4.513-26.376 9.1-38.016 13.761a1.775 1.775 0 0 0-.198.153H78.39a.32.32 0 0 0-.081-.053c-.606-.293-13.79-5.063-38.34-13.861z"
       id="path12"
       style="stroke:#81d742;stroke-opacity:1" />
  </g>
</svg>
