<?xml version="1.0" encoding="UTF-8" standalone="no"?>
<svg
   xmlns:dc="http://purl.org/dc/elements/1.1/"
   xmlns:cc="http://creativecommons.org/ns#"
   xmlns:rdf="http://www.w3.org/1999/02/22-rdf-syntax-ns#"
   xmlns:svg="http://www.w3.org/2000/svg"
   xmlns="http://www.w3.org/2000/svg"
   xmlns:sodipodi="http://sodipodi.sourceforge.net/DTD/sodipodi-0.dtd"
   xmlns:inkscape="http://www.inkscape.org/namespaces/inkscape"
   width="16"
   height="16"
   viewBox="0 0 16 16"
   version="1.1"
   id="svg8"
   sodipodi:docname="copy-icon.svg"
   inkscape:version="0.92.3 (2405546, 2018-03-11)">
  <metadata
     id="metadata14">
    <rdf:RDF>
      <cc:Work
         rdf:about="">
        <dc:format>image/svg+xml</dc:format>
        <dc:type
           rdf:resource="http://purl.org/dc/dcmitype/StillImage" />
      </cc:Work>
    </rdf:RDF>
  </metadata>
  <defs
     id="defs12" />
  <sodipodi:namedview
     pagecolor="#ffffff"
     bordercolor="#666666"
     borderopacity="1"
     objecttolerance="10"
     gridtolerance="10"
     guidetolerance="10"
     inkscape:pageopacity="0"
     inkscape:pageshadow="2"
     inkscape:window-width="1366"
     inkscape:window-height="705"
     id="namedview10"
     showgrid="false"
     inkscape:zoom="14.75"
     inkscape:cx="-4.2711864"
     inkscape:cy="8"
     inkscape:window-x="0"
     inkscape:window-y="354"
     inkscape:window-maximized="1"
     inkscape:current-layer="g6" />
  <g
     fill="#5A81EA"
     id="g6">
    <path
       d="M10.1419355,10.6580645 C10.4258065,10.6580645 10.6580645,10.4258065 10.6580645,10.1419355 L10.6580645,0.696774194 C10.6580645,0.412903226 10.4258065,0.180645161 10.1419355,0.180645161 L0.696774194,0.180645161 C0.412903226,0.180645161 0.180645161,0.412903226 0.180645161,0.696774194 L0.180645161,10.1419355 C0.180645161,10.4258065 0.412903226,10.6580645 0.696774194,10.6580645 L10.1419355,10.6580645 Z M1.21290323,1.21290323 L9.62580645,1.21290323 L9.62580645,9.62580645 L1.21290323,9.62580645 L1.21290323,1.21290323 Z"
       id="path2"
       style="fill:#81d742;fill-opacity:1" />
    <path
       d="M15.8193548,15.3032258 L15.8193548,5.85806452 C15.8193548,5.57419355 15.5870968,5.34193548 15.3032258,5.34193548 L12.2064516,5.34193548 L12.2064516,6.37419355 L14.7870968,6.37419355 L14.7870968,14.7870968 L6.37419355,14.7870968 L6.37419355,12.2064516 L5.34193548,12.2064516 L5.34193548,15.3032258 C5.34193548,15.5870968 5.57419355,15.8193548 5.85806452,15.8193548 L15.3032258,15.8193548 C15.5870968,15.8193548 15.8193548,15.5870968 15.8193548,15.3032258 Z"
       id="path4"
       style="fill:#81d742;fill-opacity:1" />
  </g>
</svg>
