<?xml version="1.0" encoding="UTF-8" standalone="no"?>
<svg
   xmlns:dc="http://purl.org/dc/elements/1.1/"
   xmlns:cc="http://creativecommons.org/ns#"
   xmlns:rdf="http://www.w3.org/1999/02/22-rdf-syntax-ns#"
   xmlns:svg="http://www.w3.org/2000/svg"
   xmlns="http://www.w3.org/2000/svg"
   xmlns:sodipodi="http://sodipodi.sourceforge.net/DTD/sodipodi-0.dtd"
   xmlns:inkscape="http://www.inkscape.org/namespaces/inkscape"
   width="80"
   height="80"
   viewBox="0 0 80 80"
   version="1.1"
   id="svg8"
   sodipodi:docname="dex-demo-account.svg"
   inkscape:version="0.92.3 (2405546, 2018-03-11)">
  <metadata
     id="metadata14">
    <rdf:RDF>
      <cc:Work
         rdf:about="">
        <dc:format>image/svg+xml</dc:format>
        <dc:type
           rdf:resource="http://purl.org/dc/dcmitype/StillImage" />
      </cc:Work>
    </rdf:RDF>
  </metadata>
  <defs
     id="defs12" />
  <sodipodi:namedview
     pagecolor="#ffffff"
     bordercolor="#666666"
     borderopacity="1"
     objecttolerance="10"
     gridtolerance="10"
     guidetolerance="10"
     inkscape:pageopacity="0"
     inkscape:pageshadow="2"
     inkscape:window-width="1366"
     inkscape:window-height="705"
     id="namedview10"
     showgrid="false"
     inkscape:zoom="2.95"
     inkscape:cx="-21.355932"
     inkscape:cy="40"
     inkscape:window-x="0"
     inkscape:window-y="354"
     inkscape:window-maximized="1"
     inkscape:current-layer="g6" />
  <g
     fill="none"
     fill-rule="evenodd"
     id="g6">
    <path
       fill="#D8D8D8"
       fill-opacity="0"
       d="M0 0h80v80H0z"
       id="path2" />
    <path
       fill="#5A81EA"
       fill-rule="nonzero"
       d="M40 12.8c-7.952 0-14.399 6.447-14.399 14.4s6.447 14.4 14.4 14.4c7.952 0 14.4-6.447 14.4-14.4S47.952 12.8 40 12.8zm0 25.6c-6.185 0-11.199-5.014-11.199-11.2 0-6.185 5.014-11.2 11.2-11.2 6.185 0 11.2 5.015 11.2 11.2-.008 6.183-5.018 11.193-11.2 11.2zM40 0C22.79-.016 7.503 10.991 2.057 27.319c-5.446 16.328.174 34.308 13.948 44.629 14.196 10.736 33.796 10.736 47.993 0a40.334 40.334 0 0 0 3.07-2.557A39.96 39.96 0 0 0 40 0zm0 76.8a36.616 36.616 0 0 1-23.656-8.652C18.217 56.536 28.24 47.999 40 47.999s21.784 8.537 23.657 20.149A36.616 36.616 0 0 1 40.001 76.8zm26.4-11.219C63.456 53.388 52.544 44.797 40 44.797c-12.542 0-23.454 8.59-26.398 20.784-14.061-14.48-13.835-37.584.506-51.786 14.34-14.203 37.445-14.203 51.786 0C80.234 27.997 80.46 51.1 66.4 65.58z"
       id="path4"
       style="fill:#81d742;fill-opacity:1" />
  </g>
</svg>
