<?xml version="1.0" encoding="UTF-8" standalone="no"?>
<svg
   xmlns:dc="http://purl.org/dc/elements/1.1/"
   xmlns:cc="http://creativecommons.org/ns#"
   xmlns:rdf="http://www.w3.org/1999/02/22-rdf-syntax-ns#"
   xmlns:svg="http://www.w3.org/2000/svg"
   xmlns="http://www.w3.org/2000/svg"
   xmlns:sodipodi="http://sodipodi.sourceforge.net/DTD/sodipodi-0.dtd"
   xmlns:inkscape="http://www.inkscape.org/namespaces/inkscape"
   width="80"
   height="80"
   viewBox="0 0 80 80"
   version="1.1"
   id="svg18"
   sodipodi:docname="dex-demo-dex.svg"
   inkscape:version="0.92.3 (2405546, 2018-03-11)">
  <metadata
     id="metadata24">
    <rdf:RDF>
      <cc:Work
         rdf:about="">
        <dc:format>image/svg+xml</dc:format>
        <dc:type
           rdf:resource="http://purl.org/dc/dcmitype/StillImage" />
      </cc:Work>
    </rdf:RDF>
  </metadata>
  <defs
     id="defs22" />
  <sodipodi:namedview
     pagecolor="#ffffff"
     bordercolor="#666666"
     borderopacity="1"
     objecttolerance="10"
     gridtolerance="10"
     guidetolerance="10"
     inkscape:pageopacity="0"
     inkscape:pageshadow="2"
     inkscape:window-width="1366"
     inkscape:window-height="705"
     id="namedview20"
     showgrid="false"
     inkscape:zoom="2.085965"
     inkscape:cx="34.664368"
     inkscape:cy="44.352753"
     inkscape:window-x="0"
     inkscape:window-y="354"
     inkscape:window-maximized="1"
     inkscape:current-layer="g16" />
  <g
     fill="none"
     fill-rule="evenodd"
     id="g16">
    <path
       fill="none"
       d="M0 0h80v80H0z"
       id="path2" />
    <path
       fill="#5A81EA"
       fill-rule="nonzero"
       d="M8.923 26.689V4.549c0-.813.661-1.472 1.477-1.472.816 0 1.477.659 1.477 1.471V26.69h5.908a3.013 3.013 0 0 1 3.015 3.01V59.13a3.013 3.013 0 0 1-3.015 3.01h-5.908v13.312c0 .812-.661 1.471-1.477 1.471a1.474 1.474 0 0 1-1.477-1.471V62.14H3.015A3.013 3.013 0 0 1 0 59.13V29.7a3.013 3.013 0 0 1 3.015-3.01h5.908zm-5.846 3.077v29.298h14.646V29.766H3.077z"
       id="path4"
       style="fill:#81d742;fill-opacity:1" />
    <path
       fill="#FFF"
       d="M3.077 29.766v29.298h14.646V29.766z"
       id="path6" />
    <path
       fill="#5A81EA"
       fill-rule="nonzero"
       d="M38.154 17.86V4.548c0-.812.661-1.471 1.477-1.471.815 0 1.477.659 1.477 1.471V17.86h5.907a3.013 3.013 0 0 1 3.016 3.01v20.735a3.013 3.013 0 0 1-3.016 3.01h-5.907v10.368c0 .813-.662 1.472-1.477 1.472a1.474 1.474 0 0 1-1.477-1.472V44.615h-5.908a3.013 3.013 0 0 1-3.015-3.01V20.87a3.013 3.013 0 0 1 3.015-3.01h5.908zm-5.846 3.076v20.602h14.646V20.936H32.308z"
       id="path8"
       style="fill:#81d742;fill-opacity:1" />
    <path
       fill="#FFF"
       d="M32.308 20.936v20.602h14.646V20.936z"
       id="path10" />
    <path
       fill="#5A81EA"
       fill-rule="nonzero"
       d="M67.385 17.86V4.548c0-.812.66-1.471 1.477-1.471.815 0 1.476.659 1.476 1.471V17.86h4.308a4.615 4.615 0 0 1 4.616 4.615v29.164a4.615 4.615 0 0 1-4.616 4.615h-4.308v19.198c0 .812-.66 1.471-1.476 1.471a1.474 1.474 0 0 1-1.477-1.471V56.254h-4.308a4.615 4.615 0 0 1-4.615-4.615V22.475a4.615 4.615 0 0 1 4.615-4.615h4.308zm-4.308 3.076c-.85 0-1.539.69-1.539 1.539v29.164c0 .85.69 1.538 1.539 1.538h11.57c.849 0 1.538-.689 1.538-1.538V22.475c0-.85-.69-1.539-1.539-1.539h-11.57z"
       id="path12"
       style="fill:#81d742;fill-opacity:1" />
    <path
       fill="#FFF"
       d="M63.077 20.936c-.85 0-1.539.69-1.539 1.539v29.164c0 .85.69 1.538 1.539 1.538h11.57c.849 0 1.538-.689 1.538-1.538V22.475c0-.85-.69-1.539-1.539-1.539h-11.57z"
       id="path14" />
  </g>
</svg>
