<?xml version="1.0" encoding="UTF-8" standalone="no"?>
<svg
   xmlns:dc="http://purl.org/dc/elements/1.1/"
   xmlns:cc="http://creativecommons.org/ns#"
   xmlns:rdf="http://www.w3.org/1999/02/22-rdf-syntax-ns#"
   xmlns:svg="http://www.w3.org/2000/svg"
   xmlns="http://www.w3.org/2000/svg"
   xmlns:sodipodi="http://sodipodi.sourceforge.net/DTD/sodipodi-0.dtd"
   xmlns:inkscape="http://www.inkscape.org/namespaces/inkscape"
   width="80"
   height="80"
   viewBox="0 0 80 80"
   version="1.1"
   id="svg30"
   sodipodi:docname="icon-connected.svg"
   inkscape:version="0.92.3 (2405546, 2018-03-11)">
  <metadata
     id="metadata36">
    <rdf:RDF>
      <cc:Work
         rdf:about="">
        <dc:format>image/svg+xml</dc:format>
        <dc:type
           rdf:resource="http://purl.org/dc/dcmitype/StillImage" />
      </cc:Work>
    </rdf:RDF>
  </metadata>
  <defs
     id="defs34" />
  <sodipodi:namedview
     pagecolor="#ffffff"
     bordercolor="#666666"
     borderopacity="1"
     objecttolerance="10"
     gridtolerance="10"
     guidetolerance="10"
     inkscape:pageopacity="0"
     inkscape:pageshadow="2"
     inkscape:window-width="1366"
     inkscape:window-height="705"
     id="namedview32"
     showgrid="false"
     inkscape:zoom="1.475"
     inkscape:cx="-102.54032"
     inkscape:cy="46.328906"
     inkscape:window-x="0"
     inkscape:window-y="354"
     inkscape:window-maximized="1"
     inkscape:current-layer="g28" />
  <g
     fill="none"
     fill-rule="evenodd"
     id="g28">
    <path
       fill="none"
       d="M0 0h80v80H0z"
       id="path2" />
    <path
       fill="#5A81EA"
       fill-rule="nonzero"
       d="M78.5 13v3h-77v-3zM8.5 10.5a1.5 1.5 0 1 1 0-3 1.5 1.5 0 0 1 0 3zm5 0a1.5 1.5 0 1 1 0-3 1.5 1.5 0 0 1 0 3zm5 0a1.5 1.5 0 1 1 0-3 1.5 1.5 0 0 1 0 3zM10.094 22.5v14h59.812v-14H10.094zm-1.031-3h61.874c1.14 0 2.063.895 2.063 2v16c0 1.105-.923 2-2.063 2H9.063c-1.14 0-2.063-.895-2.063-2v-16c0-1.105.923-2 2.063-2zm.937 28v7h13v-7H10zm-1-3h15a2 2 0 0 1 2 2v9a2 2 0 0 1-2 2H9a2 2 0 0 1-2-2v-9a2 2 0 0 1 2-2z"
       id="path4"
       style="fill:#81d742;fill-opacity:1" />
    <path
       fill="#5A81EA"
       d="M34 47.5v7h13v-7H34zm-1-3h15a2 2 0 0 1 2 2v9a2 2 0 0 1-2 2H33a2 2 0 0 1-2-2v-9a2 2 0 0 1 2-2z"
       id="path6"
       style="fill:#81d742;fill-opacity:1" />
    <rect
       width="19"
       height="3"
       x="55"
       y="44.5"
       fill="#5A81EA"
       rx="1.5"
       id="rect8"
       style="fill:#81d742;fill-opacity:1" />
    <rect
       width="3"
       height="7"
       x="55"
       y="44.5"
       fill="#5A81EA"
       rx="1.5"
       id="rect10"
       style="fill:#81d742;fill-opacity:1" />
    <rect
       width="49"
       height="3"
       y="63.5"
       fill="#5A81EA"
       rx="1.5"
       id="rect12"
       style="fill:#81d742;fill-opacity:1" />
    <rect
       width="3"
       height="46"
       x="77"
       y="1.5"
       fill="#5A81EA"
       rx="1.5"
       id="rect14"
       style="fill:#81d742;fill-opacity:1" />
    <rect
       width="3"
       height="65"
       y="1.5"
       fill="#5A81EA"
       rx="1.5"
       id="rect16"
       style="fill:#81d742;fill-opacity:1" />
    <rect
       width="80"
       height="3"
       y="1.5"
       fill="#5A81EA"
       rx="1.5"
       id="rect18"
       style="fill:#81d742;fill-opacity:1" />
    <path
       fill="#5A81EA"
       fill-rule="nonzero"
       d="M66.5 78.5C59.044 78.5 53 72.456 53 65s6.044-13.5 13.5-13.5S80 57.544 80 65s-6.044 13.5-13.5 13.5zm0-3C72.299 75.5 77 70.799 77 65s-4.701-10.5-10.5-10.5S56 59.201 56 65s4.701 10.5 10.5 10.5z"
       id="path20"
       style="fill:#81d742;fill-opacity:1" />
    <path
       fill="#5A81EA"
       d="M69.44 59.818l4.213 4.213-.539 1.677a.984.984 0 0 1-1.632.395l-4.164-4.164a1.5 1.5 0 1 1 2.121-2.121z"
       id="path22"
       style="fill:#81d742;fill-opacity:1" />
    <path
       fill="#5A81EA"
       d="M67.318 68.06l3.851-3.85a1.251 1.251 0 0 1 2.077.504l.402 1.26-4.209 4.208a1.5 1.5 0 1 1-2.121-2.121z"
       id="path24"
       style="fill:#81d742;fill-opacity:1" />
    <rect
       width="15"
       height="3"
       x="59"
       y="63.5"
       fill="#5A81EA"
       rx="1.5"
       id="rect26"
       style="fill:#81d742;fill-opacity:1" />
  </g>
</svg>
