<?xml version="1.0" encoding="UTF-8" standalone="no"?>
<svg
   xmlns:dc="http://purl.org/dc/elements/1.1/"
   xmlns:cc="http://creativecommons.org/ns#"
   xmlns:rdf="http://www.w3.org/1999/02/22-rdf-syntax-ns#"
   xmlns:svg="http://www.w3.org/2000/svg"
   xmlns="http://www.w3.org/2000/svg"
   xmlns:sodipodi="http://sodipodi.sourceforge.net/DTD/sodipodi-0.dtd"
   xmlns:inkscape="http://www.inkscape.org/namespaces/inkscape"
   width="80"
   height="80"
   viewBox="0 0 80 80"
   version="1.1"
   id="svg4"
   sodipodi:docname="icon-document.svg"
   inkscape:version="0.92.3 (2405546, 2018-03-11)">
  <metadata
     id="metadata10">
    <rdf:RDF>
      <cc:Work
         rdf:about="">
        <dc:format>image/svg+xml</dc:format>
        <dc:type
           rdf:resource="http://purl.org/dc/dcmitype/StillImage" />
      </cc:Work>
    </rdf:RDF>
  </metadata>
  <defs
     id="defs8" />
  <sodipodi:namedview
     pagecolor="#ffffff"
     bordercolor="#666666"
     borderopacity="1"
     objecttolerance="10"
     gridtolerance="10"
     guidetolerance="10"
     inkscape:pageopacity="0"
     inkscape:pageshadow="2"
     inkscape:window-width="1366"
     inkscape:window-height="705"
     id="namedview6"
     showgrid="false"
     inkscape:zoom="2.95"
     inkscape:cx="40"
     inkscape:cy="40"
     inkscape:window-x="0"
     inkscape:window-y="354"
     inkscape:window-maximized="1"
     inkscape:current-layer="svg4" />
  <path
     fill="#5A81EA"
     fill-rule="evenodd"
     d="M52.992 5.229V17a3 3 0 0 0 3 3l11.726-.042-14.726-14.73zM69 23H55.992a6 6 0 0 1-6-6V3H14a3 3 0 0 0-3 3v68a3 3 0 0 0 3 3h52a3 3 0 0 0 3-3V23zM52.007 0L72 19.998V74a6 6 0 0 1-6 6H14a6 6 0 0 1-6-6V6a6 6 0 0 1 6-6h38.007zM19.5 20h24a1.5 1.5 0 0 1 0 3h-24a1.5 1.5 0 0 1 0-3zm0 11h41a1.5 1.5 0 0 1 0 3h-41a1.5 1.5 0 0 1 0-3zm0 11h41a1.5 1.5 0 0 1 0 3h-41a1.5 1.5 0 0 1 0-3zm0 11h34a1.5 1.5 0 0 1 0 3h-34a1.5 1.5 0 0 1 0-3zm0 11h17a1.5 1.5 0 0 1 0 3h-17a1.5 1.5 0 0 1 0-3z"
     id="path2"
     style="fill:#81d742;fill-opacity:1" />
</svg>
