<?xml version="1.0" encoding="UTF-8" standalone="no"?>
<svg
   xmlns:dc="http://purl.org/dc/elements/1.1/"
   xmlns:cc="http://creativecommons.org/ns#"
   xmlns:rdf="http://www.w3.org/1999/02/22-rdf-syntax-ns#"
   xmlns:svg="http://www.w3.org/2000/svg"
   xmlns="http://www.w3.org/2000/svg"
   xmlns:xlink="http://www.w3.org/1999/xlink"
   xmlns:sodipodi="http://sodipodi.sourceforge.net/DTD/sodipodi-0.dtd"
   xmlns:inkscape="http://www.inkscape.org/namespaces/inkscape"
   width="260px"
   height="216px"
   viewBox="0 0 260 216"
   version="1.1"
   id="svg233"
   sodipodi:docname="slider-wallet-260.svg"
   inkscape:version="0.92.3 (2405546, 2018-03-11)">
  <metadata
     id="metadata237">
    <rdf:RDF>
      <cc:Work
         rdf:about="">
        <dc:format>image/svg+xml</dc:format>
        <dc:type
           rdf:resource="http://purl.org/dc/dcmitype/StillImage" />
      </cc:Work>
    </rdf:RDF>
  </metadata>
  <sodipodi:namedview
     pagecolor="#ffffff"
     bordercolor="#666666"
     borderopacity="1"
     objecttolerance="10"
     gridtolerance="10"
     guidetolerance="10"
     inkscape:pageopacity="0"
     inkscape:pageshadow="2"
     inkscape:window-width="1366"
     inkscape:window-height="705"
     id="namedview235"
     showgrid="false"
     inkscape:zoom="4.3703704"
     inkscape:cx="125.31838"
     inkscape:cy="149.17678"
     inkscape:window-x="0"
     inkscape:window-y="354"
     inkscape:window-maximized="1"
     inkscape:current-layer="g195" />
  <!-- Generator: Sketch 53.2 (72643) - https://sketchapp.com -->
  <title
     id="title2">Illustration/Slide/userimg-wallet-260</title>
  <desc
     id="desc4">Created with Sketch.</desc>
  <defs
     id="defs154">
    <linearGradient
       xlink:href="#linearGradient-8"
       gradientUnits="userSpaceOnUse"
       gradientTransform="matrix(1.3578861,0,0,0.73643879,72.827225,25.303266)"
       id="linearGradient-10"
       y2="85.481018"
       x2="43.020065"
       y1="84.411774"
       x1="44.071243">
      <stop
         id="stop1095"
         offset="7.59146%"
         stop-opacity="0"
         stop-color="#002DFF" />
      <stop
         id="stop1097"
         offset="99.51%"
         stop-color="#002DFF" />
    </linearGradient>
    <linearGradient
       x1="95.888292"
       y1="257.73292"
       x2="95.888292"
       y2="66.357807"
       id="linearGradient-1"
       gradientTransform="scale(1.2658582,0.78997792)"
       gradientUnits="userSpaceOnUse">
      <stop
         stop-color="#C5E3FF"
         offset="0%"
         id="stop6"
         style="stop-color:#81d742;stop-opacity:0.40000001" />
      <stop
         stop-color="#DCF5FF"
         stop-opacity="0.5"
         offset="100%"
         id="stop8" />
    </linearGradient>
    <linearGradient
       x1="48.213477"
       y1="12.458946"
       x2="122.46241"
       y2="116.80516"
       id="linearGradient-2"
       gradientTransform="matrix(0.84236991,0,0,1.1871269,72.827225,25.303266)"
       gradientUnits="userSpaceOnUse">
      <stop
         stop-color="#009CFF"
         offset="0%"
         id="stop11" />
      <stop
         stop-color="#0065FF"
         offset="64.01%"
         id="stop13" />
    </linearGradient>
    <linearGradient
       x1="24.810746"
       y1="64.331702"
       x2="153.19452"
       y2="64.716385"
       id="linearGradient-3"
       gradientTransform="matrix(0.84236991,0,0,1.1871269,72.827225,25.303266)"
       gradientUnits="userSpaceOnUse">
      <stop
         stop-color="#0032FF"
         stop-opacity="0"
         offset="79.63%"
         id="stop16"
         style="stop-color:#91f24a;stop-opacity:1" />
      <stop
         stop-color="#0032FF"
         stop-opacity="0.9898"
         offset="1"
         id="stop18"
         style="stop-color:#5c992f;stop-opacity:1" />
    </linearGradient>
    <linearGradient
       x1="36.477335"
       y1="28.137609"
       x2="118.94056"
       y2="129.66399"
       id="linearGradient-4"
       gradientTransform="matrix(0.89998828,0,0,1.1111256,72.827225,25.303266)"
       gradientUnits="userSpaceOnUse">
      <stop
         stop-color="#00A6FF"
         offset="0%"
         id="stop23"
         style="stop-color:#91f24a;stop-opacity:1" />
      <stop
         stop-color="#0071FF"
         offset="55.38%"
         id="stop25"
         style="stop-color:#6bb237;stop-opacity:1" />
    </linearGradient>
    <linearGradient
       x1="39.675008"
       y1="33.193003"
       x2="102.80403"
       y2="149.83365"
       id="linearGradient-5"
       gradientTransform="matrix(0.9668653,0,0,1.0342702,72.827225,25.303266)"
       gradientUnits="userSpaceOnUse">
      <stop
         stop-color="#00A9FF"
         offset="0%"
         id="stop28"
         style="stop-color:#91f24a;stop-opacity:1" />
      <stop
         stop-color="#009CFF"
         offset="23.1%"
         id="stop30"
         style="stop-color:#7acc3f;stop-opacity:1" />
      <stop
         stop-color="#0083FF"
         offset="56.45%"
         id="stop32"
         style="stop-color:#63a633;stop-opacity:1" />
    </linearGradient>
    <linearGradient
       x1="126.56114"
       y1="49.819906"
       x2="83.816907"
       y2="156.38458"
       id="linearGradient-6"
       gradientTransform="matrix(0.83235466,0,0,1.201411,72.827225,25.303266)"
       gradientUnits="userSpaceOnUse">
      <stop
         stop-color="#0025E4"
         offset="0%"
         id="stop35"
         style="stop-color:#5c992f;stop-opacity:1" />
      <stop
         stop-color="#002FE8"
         offset="22.46%"
         id="stop37"
         style="stop-color:#6bb237;stop-opacity:1" />
      <stop
         stop-color="#004BF2"
         offset="61.02%"
         id="stop39"
         style="stop-color:#7acc3f;stop-opacity:1" />
      <stop
         stop-color="#006DFF"
         offset="100%"
         id="stop41"
         style="stop-color:#8ae546;stop-opacity:1" />
    </linearGradient>
    <linearGradient
       x1="0.31918781"
       y1="51.644364"
       x2="26.293095"
       y2="51.644364"
       id="linearGradient-7"
       gradientTransform="matrix(0.79608687,0,0,1.2561443,72.827225,25.303266)"
       gradientUnits="userSpaceOnUse">
      <stop
         stop-color="#0054FC"
         offset="83.31%"
         id="stop44"
         style="stop-color:#81d742;stop-opacity:1" />
      <stop
         stop-color="#0051FB"
         offset="89.45%"
         id="stop46"
         style="stop-color:#73bf3b;stop-opacity:1" />
      <stop
         stop-color="#0047F9"
         offset="94.44%"
         id="stop48"
         style="stop-color:#64a633;stop-opacity:1" />
      <stop
         stop-color="#0036F5"
         offset="99.01%"
         id="stop50"
         style="stop-color:#5c992f;stop-opacity:1" />
      <stop
         stop-color="#0031F4"
         offset="100%"
         id="stop52"
         style="stop-color:#4d8027;stop-opacity:1" />
    </linearGradient>
    <linearGradient
       x1="53.767439"
       y1="102.30694"
       x2="155.34936"
       y2="102.30694"
       id="linearGradient-8"
       gradientTransform="matrix(0.83235465,0,0,1.201411,72.827225,25.303266)"
       gradientUnits="userSpaceOnUse">
      <stop
         stop-color="#0064F9"
         stop-opacity="0"
         offset="79.79%"
         id="stop55"
         style="stop-color:#81d742;stop-opacity:1" />
      <stop
         stop-color="#076CF9"
         stop-opacity="0.197"
         offset="83.77%"
         id="stop57"
         style="stop-color:#81d742;stop-opacity:1" />
      <stop
         stop-color="#1880F9"
         stop-opacity="0.4954"
         offset="89.8%"
         id="stop59"
         style="stop-color:#81d742;stop-opacity:1" />
      <stop
         stop-color="#36A2F9"
         stop-opacity="0.8564"
         offset="97.1%"
         id="stop61"
         style="stop-color:#6bb237;stop-opacity:1" />
      <stop
         stop-color="#43B2F9"
         offset="100%"
         id="stop63"
         style="stop-color:#5c992f;stop-opacity:1" />
    </linearGradient>
    <linearGradient
       x1="53.767438"
       y1="102.57058"
       x2="155.34936"
       y2="102.57058"
       id="linearGradient-9"
       gradientTransform="matrix(0.83235466,0,0,1.201411,72.82723,25.303266)"
       gradientUnits="userSpaceOnUse">
      <stop
         stop-color="#0064F9"
         stop-opacity="0"
         offset="93.01%"
         id="stop66"
         style="stop-color:#7bcc3e;stop-opacity:1" />
      <stop
         stop-color="#076CF9"
         stop-opacity="0.197"
         offset="94.38%"
         id="stop68"
         style="stop-color:#6bb237;stop-opacity:1" />
      <stop
         stop-color="#1880F9"
         stop-opacity="0.4954"
         offset="96.47%"
         id="stop70"
         style="stop-color:#63a633;stop-opacity:1" />
      <stop
         stop-color="#36A2F9"
         stop-opacity="0.8564"
         offset="99%"
         id="stop72"
         style="stop-color:#5c992f;stop-opacity:1" />
      <stop
         stop-color="#43B2F9"
         offset="100%"
         id="stop74"
         style="stop-color:#4d8027;stop-opacity:1" />
    </linearGradient>
    <linearGradient
       x1="44.071243"
       y1="84.411774"
       x2="43.020065"
       y2="85.481018"
       id="linearGradient-10-3"
       gradientTransform="matrix(1.3578861,0,0,0.73643879,72.827225,25.303266)"
       gradientUnits="userSpaceOnUse"
       xlink:href="#linearGradient-8">
      <stop
         stop-color="#002DFF"
         stop-opacity="0"
         offset="7.59146%"
         id="stop77"
         style="stop-color:#81d642;stop-opacity:0.1" />
      <stop
         stop-color="#002DFF"
         offset="99.51%"
         id="stop79"
         style="stop-color:#3d661f;stop-opacity:1" />
    </linearGradient>
    <linearGradient
       x1="50.768939"
       y1="64.139157"
       x2="49.712177"
       y2="65.218006"
       id="linearGradient-11"
       gradientTransform="matrix(1.3554027,0,0,0.73778809,72.827225,25.303266)"
       gradientUnits="userSpaceOnUse">
      <stop
         stop-color="#002DFF"
         stop-opacity="0"
         offset="4.26067%"
         id="stop82"
         style="stop-color:#81d642;stop-opacity:0.1" />
      <stop
         stop-color="#002DFF"
         offset="100%"
         id="stop84"
         style="stop-color:#5c992f;stop-opacity:1" />
    </linearGradient>
    <linearGradient
       x1="18.695181"
       y1="23.369063"
       x2="18.695181"
       y2="0.23722196"
       id="linearGradient-12"
       gradientTransform="scale(0.81976583,1.2198606)"
       gradientUnits="userSpaceOnUse">
      <stop
         stop-color="#FFC000"
         offset="0%"
         id="stop87" />
      <stop
         stop-color="#FFA900"
         offset="3.970318%"
         id="stop89" />
      <stop
         stop-color="#FF8900"
         offset="10.63%"
         id="stop91" />
      <stop
         stop-color="#FF7500"
         offset="16.21%"
         id="stop93" />
      <stop
         stop-color="#FF6E00"
         offset="20%"
         id="stop95" />
      <stop
         stop-color="#FF7300"
         offset="39.02%"
         id="stop97" />
      <stop
         stop-color="#FF8300"
         offset="62.84%"
         id="stop99" />
      <stop
         stop-color="#FF9C00"
         offset="89.11%"
         id="stop101" />
      <stop
         stop-color="#FFA900"
         offset="100%"
         id="stop103" />
    </linearGradient>
    <linearGradient
       x1="4.4548322"
       y1="12.703243"
       x2="20.997117"
       y2="14.123606"
       id="linearGradient-13"
       gradientTransform="scale(0.90101685,1.1098572)"
       gradientUnits="userSpaceOnUse">
      <stop
         stop-color="#FFB300"
         offset="0%"
         id="stop106" />
      <stop
         stop-color="#FFD800"
         offset="100%"
         id="stop108" />
    </linearGradient>
    <linearGradient
       x1="8.684005"
       y1="12.198799"
       x2="12.747663"
       y2="17.210689"
       id="linearGradient-14"
       gradientTransform="scale(0.89919507,1.1121057)"
       gradientUnits="userSpaceOnUse">
      <stop
         stop-color="#FD7F02"
         offset="0%"
         id="stop111" />
      <stop
         stop-color="#FDA002"
         offset="100%"
         id="stop113" />
    </linearGradient>
    <linearGradient
       x1="11.283648"
       y1="10.60451"
       x2="14.49172"
       y2="16.980356"
       id="linearGradient-15"
       gradientTransform="scale(0.93224474,1.0726797)"
       gradientUnits="userSpaceOnUse">
      <stop
         stop-color="#F66500"
         offset="0%"
         id="stop116" />
      <stop
         stop-color="#FC7A02"
         offset="86.38%"
         id="stop118" />
      <stop
         stop-color="#FD7E02"
         offset="100%"
         id="stop120" />
    </linearGradient>
    <linearGradient
       x1="5.8254886"
       y1="13.923971"
       x2="9.8355923"
       y2="13.923971"
       id="linearGradient-16"
       gradientTransform="scale(1.1722571,0.85305519)"
       gradientUnits="userSpaceOnUse">
      <stop
         stop-color="#FF5F00"
         offset="0%"
         id="stop123" />
      <stop
         stop-color="#FB4A01"
         offset="50.33%"
         id="stop125" />
      <stop
         stop-color="#F73102"
         offset="99.68%"
         id="stop127" />
    </linearGradient>
    <linearGradient
       x1="18.501406"
       y1="23.135138"
       x2="18.501406"
       y2="0.0035312893"
       id="linearGradient-17"
       gradientTransform="scale(0.81975751,1.2198729)"
       gradientUnits="userSpaceOnUse">
      <stop
         stop-color="#FFC000"
         offset="0%"
         id="stop130" />
      <stop
         stop-color="#FFA900"
         offset="3.970318%"
         id="stop132" />
      <stop
         stop-color="#FF8900"
         offset="10.63%"
         id="stop134" />
      <stop
         stop-color="#FF7500"
         offset="16.21%"
         id="stop136" />
      <stop
         stop-color="#FF6E00"
         offset="20%"
         id="stop138" />
      <stop
         stop-color="#FF7300"
         offset="39.02%"
         id="stop140" />
      <stop
         stop-color="#FF8300"
         offset="62.84%"
         id="stop142" />
      <stop
         stop-color="#FF9C00"
         offset="89.11%"
         id="stop144" />
      <stop
         stop-color="#FFA900"
         offset="100%"
         id="stop146" />
    </linearGradient>
    <linearGradient
       x1="4.2785722"
       y1="12.446376"
       x2="20.820857"
       y2="13.866738"
       id="linearGradient-18"
       gradientTransform="scale(0.90101685,1.1098572)"
       gradientUnits="userSpaceOnUse">
      <stop
         stop-color="#FFB300"
         offset="0%"
         id="stop149" />
      <stop
         stop-color="#FFD800"
         offset="100%"
         id="stop151" />
    </linearGradient>
    <linearGradient
       inkscape:collect="always"
       xlink:href="#linearGradient-8"
       id="linearGradient1100"
       gradientUnits="userSpaceOnUse"
       gradientTransform="matrix(0.83235465,0,0,1.201411,72.82723,25.303266)"
       x1="53.767439"
       y1="102.30694"
       x2="155.34936"
       y2="102.30694" />
  </defs>
  <g
     id="Illustration/Slide/userimg-wallet-260"
     stroke="none"
     stroke-width="1"
     fill="none"
     fill-rule="evenodd">
    <g
       id="g230">
      <rect
         id="ico-zone"
         fill-opacity="0"
         fill="#D8D8D8"
         fill-rule="nonzero"
         x="0"
         y="0"
         width="260"
         height="216" />
      <polygon
         style="fill:url(#linearGradient-1)"
         points="210.17347,127.96475 242.50785,111.20897 129.5281,52.421203 0.25410122,119.53935 48.660384,144.72053 16.580105,161.63468 97.289005,203.60332 226.34066,136.39015 "
         id="Path"
         transform="translate(8.666667,12)" />
      <path
         d="M 178.12042,178.03743 94.489354,132.61628 c -0.47644,-0.25339 -0.762304,-0.72851 -0.762304,-1.26698 V 26.253499 c 0,-0.728512 0.762304,-1.171954 1.397557,-0.823535 11.879233,6.429912 91.381153,49.348781 98.019553,52.927994 7.84537,4.244375 8.95707,5.63805 8.95707,9.660705 v 77.507367 z"
         id="path158"
         style="fill:url(#linearGradient-2)"
         inkscape:connector-curvature="0" />
      <path
         d="M 178.12042,178.03743 94.489354,132.61628 c -0.47644,-0.25339 -0.762304,-0.72851 -0.762304,-1.26698 V 26.253499 c 0,-0.728512 0.762304,-1.171954 1.397557,-0.823535 6.447823,3.484188 78.263183,42.253706 98.019553,52.927994 7.84537,4.244375 8.95707,5.63805 8.95707,9.660705 v 77.507367 z"
         id="path160"
         style="fill:url(#linearGradient-3)"
         inkscape:connector-curvature="0" />
      <path
         d="M 178.12042,178.03743 94.298778,132.58461 c -0.317626,-0.19005 -0.571728,-0.44344 -0.571728,-0.95024 l 0.03176,-84.729134 c 0,0 3.208028,2.470606 19.75637,12.162986 27.56999,16.153966 86.42618,47.163248 86.42618,47.163248 v 60.40316 z"
         id="path162"
         style="fill:url(#linearGradient-4)"
         inkscape:connector-curvature="0" />
      <path
         d="m 178.12042,178.03743 -83.885167,-45.4845 c -0.254101,-0.1267 -0.47644,-0.38009 -0.47644,-0.91856 V 66.796786 c 0,0 2.50925,1.900466 11.879237,7.506843 34.24014,20.525039 92.11169,49.602181 92.11169,49.602181 v 43.8691 z"
         id="path164"
         style="fill:url(#linearGradient-5)"
         inkscape:connector-curvature="0" />
      <path
         d="m 202.13299,160.74319 v 4.75116 l -84.55218,44.05915 v -72.56615 c 0,-0.50679 0.28586,-0.95023 0.69877,-1.20362 7.71833,-4.18103 75.49983,-40.955062 78.39023,-42.475436 3.04922,-1.647071 5.14555,-3.515863 5.43142,-5.796423 0.0318,2.312235 0.0318,73.231319 0.0318,73.231319 z"
         id="path166"
         style="fill:url(#linearGradient-6)"
         inkscape:connector-curvature="0" />
      <path
         d="m 93.72705,73.986885 c -0.381151,-0.158373 -0.857591,-0.221722 -1.55637,0.158372 -0.60349,0.316744 -18.263525,9.977449 -18.263525,9.977449 -0.508202,0.28507 -0.825829,0.696838 -0.825829,1.393676 v 20.081598 c 0,0.79186 0.698779,1.14028 1.524607,0.69684 0,0 17.247121,-9.407313 17.723561,-9.660709 0.60349,-0.316744 1.016405,-0.221721 1.429319,-0.03167 -0.03176,-0.316745 -0.03176,-22.362157 -0.03176,-22.615552 z"
         id="path168"
         style="fill:url(#linearGradient-7)"
         inkscape:connector-curvature="0" />
      <ellipse
         id="Oval"
         transform="rotate(-72.470981)"
         cx="-137.4575"
         cy="180.51947"
         rx="6.4317765"
         ry="4.382308"
         style="fill:#5c992f;fill-opacity:1" />
      <ellipse
         id="ellipse171"
         transform="rotate(-72.470981)"
         cx="-62.661484"
         cy="105.76464"
         rx="4.5624423"
         ry="3.080318"
         style="fill:#5c992f;fill-opacity:1" />
      <path
         d="m 83.467714,91.154432 c 0,1.108606 -0.667016,2.217211 -1.524608,2.470607 -0.825829,0.253396 -1.524607,-0.443442 -1.524607,-1.552048 0,-1.108605 0.667016,-2.217211 1.524607,-2.470606 0.825829,-0.253396 1.524608,0.443442 1.524608,1.552047 z"
         id="path173"
         inkscape:connector-curvature="0"
         style="fill:#81d742;fill-opacity:1" />
      <path
         d="m 132.57278,184.87911 c 0,1.362 -0.82583,2.724 -1.84224,3.04075 -1.0164,0.31674 -1.84223,-0.53847 -1.84223,-1.90047 0,-1.362 0.82583,-2.724 1.84223,-3.04074 0.98465,-0.31675 1.84224,0.53846 1.84224,1.90046 z"
         id="path175"
         inkscape:connector-curvature="0"
         style="fill:#81d742;fill-opacity:1" />
      <path
         d="m 202.13299,160.42644 v 4.75117 l -84.55218,44.05915 v -72.56615 c 0,-0.50679 0.28586,-0.95023 0.69877,-1.20363 12.54625,-6.81 75.46807,-40.923382 78.39023,-42.47543 3.04922,-1.647071 5.14555,-3.515863 5.43142,-5.796423 0.0318,2.312234 0.0318,73.231313 0.0318,73.231313 z"
         id="path177"
         style="opacity:0.5;fill:url(#linearGradient1100)"
         inkscape:connector-curvature="0" />
      <path
         d="m 202.13299,160.74319 v 4.75116 l -84.55218,44.05915 v -72.56615 c 0,-0.50679 0.28586,-0.95023 0.69877,-1.20362 12.54625,-6.81001 75.46807,-40.923388 78.39023,-42.475436 3.04922,-1.647071 5.14555,-3.515863 5.43142,-5.796423 0.0318,2.312235 0.0318,73.231319 0.0318,73.231319 z"
         id="path179"
         style="opacity:0.4;fill:url(#linearGradient-9)"
         inkscape:connector-curvature="0" />
      <path
         d="m 93.758813,66.796786 77.500877,40.289894 -3.20803,1.74209 c 0,0 -33.98604,-18.022757 -59.93613,-32.973093 -11.339265,-6.55661 -14.356717,-9.058891 -14.356717,-9.058891 z"
         id="path181"
         style="fill:url(#linearGradient-10-3);fill-opacity:1"
         inkscape:connector-curvature="0" />
      <path
         d="m 93.758813,46.905236 95.605587,50.299015 -3.20803,1.742094 c 0,0 -46.75462,-24.642716 -77.5644,-42.855521 C 96.71274,49.090772 93.758813,46.905236 93.758813,46.905236 Z"
         id="path183"
         style="fill:url(#linearGradient-11)"
         inkscape:connector-curvature="0" />
      <g
         transform="translate(136.67016,12)"
         id="g195">
        <path
           inkscape:connector-curvature="0"
           style="fill:url(#linearGradient-12)"
           id="path186"
           d="m 19.946946,27.335044 c -0.539965,0.253396 -1.905759,0.760187 -3.176265,1.171954 1.429319,-0.506791 2.413961,-1.203628 2.858638,-1.615396 1.937522,-1.742095 3.11274,-4.592794 3.11274,-8.203681 0,-7.411819 -5.050261,-15.108709 -11.307504,-17.1992222 C 9.7511344,0.91855884 7.4642234,0.8868844 5.8443281,1.362001 6.9877836,0.95023328 7.9724258,0.69683774 8.6076789,0.53846553 10.100524,0.19004666 11.720419,0.15837221 13.499127,0.76018662 19.75637,2.8506998 24.806632,10.579264 24.806632,17.959409 c 0.03176,4.56112 -1.905759,7.950285 -4.859686,9.375635 z" />
        <path
           inkscape:connector-curvature="0"
           style="fill:url(#linearGradient-13);fill-rule:nonzero"
           id="Shape"
           d="M 11.466318,1.4886988 C 5.209075,-0.60181441 0.15881326,3.6742354 0.15881326,11.086055 c 0,7.41182 5.05026174,15.108709 11.30750474,17.199222 6.257242,2.090514 11.307504,-2.185536 11.307504,-9.597356 0,-7.411819 -5.050262,-15.108709 -11.307504,-17.1992222 z m -0.190576,18.5295492 -4.4467717,-6.429912 4.4467717,-3.42084 4.446771,6.429912 z" />
        <polygon
           style="fill:url(#linearGradient-14)"
           points="6.7972077,13.556662 8.2582897,12.954847 12.482722,19.068015 11.243979,19.986573 "
           id="polygon189" />
        <polygon
           style="fill:url(#linearGradient-15)"
           points="15.722513,16.565734 12.514485,19.068015 8.2900524,12.986522 11.529843,10.515915 "
           id="polygon191" />
        <polygon
           style="fill:url(#linearGradient-16)"
           points="11.275742,10.167496 11.529843,10.547589 8.2900524,12.986522 6.8289703,13.588336 "
           id="polygon193" />
      </g>
      <g
         transform="translate(162.71554,48.425609)"
         id="g227">
        <path
           inkscape:connector-curvature="0"
           style="fill:url(#linearGradient-17)"
           id="path197"
           d="m 19.788133,27.049974 c -0.539966,0.253396 -1.90576,0.760187 -3.176266,1.171954 1.42932,-0.506791 2.413962,-1.203628 2.858639,-1.615396 1.937522,-1.742095 3.11274,-4.592794 3.11274,-8.203681 0,-7.411819 -5.050262,-15.108709 -11.307504,-17.1992222 C 9.5923211,0.63348885 7.3054101,0.60181441 5.6855148,1.076931 6.8289703,0.6651633 7.8136126,0.41176776 8.4488656,0.25339554 9.9417103,-0.09502333 11.561606,-0.12669777 13.340314,0.47511664 19.597557,2.5656299 24.647818,10.294194 24.647818,17.674339 c 0,4.592794 -1.937521,7.950285 -4.859685,9.375635 z" />
        <path
           inkscape:connector-curvature="0"
           style="fill:url(#linearGradient-18)"
           id="path199"
           d="M 11.307504,1.2036288 C 5.0502618,-0.8868844 0,3.3891654 0,10.800985 c 0,7.41182 5.0502618,15.108709 11.307504,17.199222 6.257243,2.090514 11.307505,-2.185536 11.307505,-9.597356 0,-7.380145 -5.082025,-15.0770345 -11.307505,-17.1992222 z" />
        <path
           style="fill:#ef5500;fill-rule:nonzero"
           inkscape:connector-curvature="0"
           id="path201"
           d="M 15.881326,13.303266 14.261431,11.212753 12.165096,10.040798 V 7.9186107 L 10.704014,7.1267496 V 9.2489373 L 7.6547993,7.5701918 V 18.339502 l 3.0492147,1.678746 v 2.090513 l 1.461082,0.791861 v -2.090513 l 1.715183,0.950233 2.001047,-0.981908 v -2.977397 l -1.016405,-1.457025 1.016405,-0.601814 z m -1.461082,6.683307 -0.60349,0.316745 -4.7008727,-2.597305 v -3.484188 l 4.2561957,2.343908 1.048167,1.520374 z m 0,-5.004562 -0.60349,0.348419 L 9.1158813,12.7648 V 9.8190772 l 4.1609077,2.3122348 1.143455,1.488698 z" />
        <path
           style="fill:#ff6d00;fill-rule:nonzero"
           inkscape:connector-curvature="0"
           id="path203"
           d="m 15.881326,20.715085 v -2.914048 l -1.016405,-1.457025 1.016405,-0.601814 V 13.303266 L 14.261431,11.212753 12.165096,10.040798 V 7.9186107 L 11.720419,7.6652151 V 8.6787973 L 10.704014,9.2172628 8.7029668,8.1086573 v 9.6607047 l 3.0492152,1.678746 v 2.090513 l 0.444677,0.221721 v -0.981908 l 1.016405,-0.538465 1.715183,0.950233 z M 9.1158813,9.8190772 10.132286,9.2806117 l 4.160908,2.3122343 1.143455,1.488699 v 1.393675 l -0.60349,0.348419 -0.412915,0.190047 -0.60349,0.348419 -4.7008727,-2.56563 V 9.8190772 Z m 5.3043627,10.1674958 -0.60349,0.316745 -4.7008727,-2.597305 v -3.484188 l 1.0164047,-0.538466 4.256196,2.343909 1.048167,1.520373 v 1.900467 l -0.60349,0.316744 z" />
        <g
           style="fill:#ff9700"
           id="g217"
           transform="translate(7.623037,7.601866)">
          <polygon
             id="polygon205"
             points="6.2572426,14.158476 7.3054101,13.62001 5.5584642,12.669777 4.5420593,13.208243 " />
          <polygon
             id="polygon207"
             points="1.4928447,6.6199585 5.7490401,8.9638673 6.765445,8.3937273 2.5092496,6.081493 " />
          <polygon
             id="polygon209"
             points="1.4928447,2.217211 1.4928447,2.217211 5.6537522,4.5294453 6.6701571,3.9593053 2.5092496,1.6787455 " />
          <polygon
             id="polygon211"
             points="4.5420593,0.31674443 4.4150087,0.25339554 4.5420593,0.31674443 " />
          <polygon
             id="polygon213"
             points="4.0973822,11.846242 1.0799302,10.199171 0.063525305,10.737636 3.0809773,12.416381 " />
          <polyline
             id="polyline215"
             points="3.08097731 14.4752203 4.54205934 15.2987558 4.54205934 14.1901503 4.0973822 13.9367548" />
        </g>
        <g
           style="fill:#ff7f00"
           id="g225"
           transform="translate(11.752182,7.601866)">
          <polygon
             id="polygon219"
             points="2.6363002,8.3937273 1.6198953,8.9638673 2.6680628,10.452566 3.6844677,9.9141006 " />
          <polygon
             id="polygon221"
             points="2.5410122,3.9593053 1.5246073,4.5294453 2.6680628,6.0181441 3.6844677,5.4480042 " />
          <polygon
             id="polygon223"
             points="0.41291448,0.31674443 0.28586387,0.25339554 0.41291448,0.31674443 " />
        </g>
      </g>
    </g>
  </g>
</svg>
