<?xml version="1.0" encoding="UTF-8" standalone="no"?>
<svg
   xmlns:dc="http://purl.org/dc/elements/1.1/"
   xmlns:cc="http://creativecommons.org/ns#"
   xmlns:rdf="http://www.w3.org/1999/02/22-rdf-syntax-ns#"
   xmlns:svg="http://www.w3.org/2000/svg"
   xmlns="http://www.w3.org/2000/svg"
   xmlns:sodipodi="http://sodipodi.sourceforge.net/DTD/sodipodi-0.dtd"
   xmlns:inkscape="http://www.inkscape.org/namespaces/inkscape"
   width="100px"
   height="21px"
   viewBox="0 0 100 21"
   version="1.1"
   id="svg21"
   sodipodi:docname="waves_logo.svg"
   inkscape:version="0.92.3 (2405546, 2018-03-11)">
  <metadata
     id="metadata25">
    <rdf:RDF>
      <cc:Work
         rdf:about="">
        <dc:format>image/svg+xml</dc:format>
        <dc:type
           rdf:resource="http://purl.org/dc/dcmitype/StillImage" />
      </cc:Work>
    </rdf:RDF>
  </metadata>
  <sodipodi:namedview
     pagecolor="#ffffff"
     bordercolor="#666666"
     borderopacity="1"
     objecttolerance="10"
     gridtolerance="10"
     guidetolerance="10"
     inkscape:pageopacity="0"
     inkscape:pageshadow="2"
     inkscape:window-width="1366"
     inkscape:window-height="705"
     id="namedview23"
     showgrid="false"
     inkscape:zoom="3.337544"
     inkscape:cx="89.937428"
     inkscape:cy="4.067287"
     inkscape:window-x="0"
     inkscape:window-y="354"
     inkscape:window-maximized="1"
     inkscape:current-layer="svg21" />
  <!-- Generator: Sketch 48 (47235) - http://www.bohemiancoding.com/sketch -->
  <title
     id="title2">waves_logo</title>
  <desc
     id="desc4">Created with Sketch.</desc>
  <defs
     id="defs6" />
  <g
     aria-label="TurtleNetwork"
     transform="matrix(1.1745814,0,0,1.1745814,16.595675,14.088044)"
     style="font-style:normal;font-weight:normal;font-size:13.33333302px;line-height:1.25;font-family:sans-serif;letter-spacing:0px;word-spacing:0px;fill:#81d742;fill-opacity:1;stroke:none"
     id="flowRoot832">
    <path
       d="m -6.5937502,-6.6700647 h -2.9557291 v 8.1510415 h -1.6341147 v -8.1510415 h -2.929687 v -1.3281249 h 7.5195308 z"
       style="font-style:normal;font-variant:normal;font-weight:500;font-stretch:normal;font-family:Roboto;-inkscape-font-specification:'Roboto Medium';fill:#81d742;fill-opacity:1"
       id="path840" />
    <path
       d="m -1.6458336,0.79087266 q -0.6966146,0.82031244 -1.9791666,0.82031244 -1.1458333,0 -1.7382812,-0.67057287 -0.5859375,-0.6705729 -0.5859375,-1.94010412 V -5.5632939 h 1.5820312 v 4.5442708 q 0,1.34114577 1.1132812,1.34114577 1.1523437,0 1.5559896,-0.8268229 V -5.5632939 h 1.58203117 V 1.4809768 H -1.6067711 Z"
       style="font-style:normal;font-variant:normal;font-weight:500;font-stretch:normal;font-family:Roboto;-inkscape-font-specification:'Roboto Medium';fill:#81d742;fill-opacity:1"
       id="path842" />
    <path
       d="m 5.1966138,-4.1179814 q -0.3125,-0.052083 -0.6445312,-0.052083 -1.0872396,0 -1.4648437,0.8333333 V 1.4809768 H 1.5052077 v -7.0442707 h 1.5104166 l 0.039063,0.7877604 q 0.5729167,-0.9179687 1.5885416,-0.9179687 0.3385417,0 0.5598959,0.091146 z"
       style="font-style:normal;font-variant:normal;font-weight:500;font-stretch:normal;font-family:Roboto;-inkscape-font-specification:'Roboto Medium';fill:#81d742;fill-opacity:1"
       id="path844" />
    <path
       d="m 8.5169257,-7.2755334 v 1.7122395 h 1.2434896 v 1.171875 H 8.5169257 v 3.93229158 q 0,0.40364583 0.15625,0.58593749 0.1627605,0.17578125 0.5729167,0.17578125 0.2734375,0 0.5533854,-0.0651042 V 1.4614456 q -0.5403646,0.1497395 -1.0416666,0.1497395 -1.8229167,0 -1.8229167,-2.01171867 V -4.3914189 H 5.7760404 v -1.171875 h 1.1588541 v -1.7122395 z"
       style="font-style:normal;font-variant:normal;font-weight:500;font-stretch:normal;font-family:Roboto;-inkscape-font-specification:'Roboto Medium';fill:#81d742;fill-opacity:1"
       id="path846" />
    <path
       d="M 12.644531,1.4809768 H 11.062499 V -8.519023 h 1.582032 z"
       style="font-style:normal;font-variant:normal;font-weight:500;font-stretch:normal;font-family:Roboto;-inkscape-font-specification:'Roboto Medium';fill:#81d742;fill-opacity:1"
       id="path848" />
    <path
       d="m 17.47526,1.6111851 q -1.503906,0 -2.441406,-0.94401036 -0.930989,-0.95052081 -0.930989,-2.52604164 v -0.1953125 q 0,-1.0546874 0.403645,-1.8815103 0.410157,-0.8333333 1.145834,-1.2955729 0.735677,-0.4622396 1.640625,-0.4622396 1.438802,0 2.220052,0.9179687 0.78776,0.9179688 0.78776,2.5976562 v 0.6380208 h -4.602864 q 0.07161,0.87239586 0.579427,1.38020834 0.514323,0.50781249 1.289062,0.50781249 1.08724,0 1.770833,-0.87890623 l 0.852865,0.81380207 q -0.423177,0.6315104 -1.132812,0.98307293 -0.703125,0.345052 -1.582032,0.345052 z M 17.286458,-4.423971 q -0.651041,0 -1.054687,0.4557292 -0.397136,0.4557291 -0.507813,1.2695312 h 3.014323 V -2.8158981 Q 18.686198,-3.6101689 18.315104,-4.0138147 17.94401,-4.423971 17.286458,-4.423971 Z"
       style="font-style:normal;font-variant:normal;font-weight:500;font-stretch:normal;font-family:Roboto;-inkscape-font-specification:'Roboto Medium';fill:#81d742;fill-opacity:1"
       id="path850" />
    <path
       d="m 29.20703,1.4809768 h -1.647136 l -4.22526,-6.7252603 v 6.7252603 h -1.647135 v -9.4791664 h 1.647135 l 4.238281,6.7513019 v -6.7513019 h 1.634115 z"
       style="font-style:normal;font-variant:normal;font-weight:500;font-stretch:normal;font-family:Roboto;-inkscape-font-specification:'Roboto Medium';fill:#81d742;fill-opacity:1"
       id="path852" />
    <path
       d="m 34.115885,1.6111851 q -1.503906,0 -2.441406,-0.94401036 Q 30.74349,-0.28334607 30.74349,-1.8588669 v -0.1953125 q 0,-1.0546874 0.403645,-1.8815103 0.410157,-0.8333333 1.145834,-1.2955729 0.735677,-0.4622396 1.640625,-0.4622396 1.438802,0 2.220052,0.9179687 0.78776,0.9179688 0.78776,2.5976562 v 0.6380208 h -4.602864 q 0.07161,0.87239586 0.579427,1.38020834 0.514323,0.50781249 1.289062,0.50781249 1.08724,0 1.770833,-0.87890623 l 0.852865,0.81380207 q -0.423177,0.6315104 -1.132812,0.98307293 -0.703125,0.345052 -1.582032,0.345052 z M 33.927083,-4.423971 q -0.651041,0 -1.054687,0.4557292 -0.397136,0.4557291 -0.507813,1.2695312 h 3.014323 V -2.8158981 Q 35.326823,-3.6101689 34.955729,-4.0138147 34.584635,-4.423971 33.927083,-4.423971 Z"
       style="font-style:normal;font-variant:normal;font-weight:500;font-stretch:normal;font-family:Roboto;-inkscape-font-specification:'Roboto Medium';fill:#81d742;fill-opacity:1"
       id="path854" />
    <path
       d="m 40.157551,-7.2755334 v 1.7122395 h 1.243489 v 1.171875 h -1.243489 v 3.93229158 q 0,0.40364583 0.15625,0.58593749 0.16276,0.17578125 0.572916,0.17578125 0.273438,0 0.553386,-0.0651042 V 1.4614456 q -0.540365,0.1497395 -1.041667,0.1497395 -1.822916,0 -1.822916,-2.01171867 V -4.3914189 h -1.158855 v -1.171875 h 1.158855 v -1.7122395 z"
       style="font-style:normal;font-variant:normal;font-weight:500;font-stretch:normal;font-family:Roboto;-inkscape-font-specification:'Roboto Medium';fill:#81d742;fill-opacity:1"
       id="path856" />
    <path
       d="m 48.790362,-0.70001273 1.119792,-4.86328117 h 1.542968 l -1.920573,7.0442707 h -1.302083 l -1.510417,-4.8372395 -1.484375,4.8372395 h -1.302083 l -1.927083,-7.0442707 h 1.542969 l 1.139322,4.81119784 1.445313,-4.81119784 h 1.191406 z"
       style="font-style:normal;font-variant:normal;font-weight:500;font-stretch:normal;font-family:Roboto;-inkscape-font-specification:'Roboto Medium';fill:#81d742;fill-opacity:1"
       id="path858" />
    <path
       d="m 52.227862,-2.1062627 q 0,-1.0351562 0.410156,-1.8619791 0.410157,-0.8333333 1.152344,-1.2760417 0.742187,-0.4492187 1.705729,-0.4492187 1.425781,0 2.311198,0.9179687 0.891927,0.9179688 0.963542,2.4348958 l 0.0065,0.3710938 q 0,1.0416666 -0.403646,1.86197908 -0.397135,0.82031248 -1.145833,1.26953122 -0.742188,0.4492187 -1.71875,0.4492187 -1.490885,0 -2.389323,-0.98958327 -0.891927,-0.99609373 -0.891927,-2.64973953 z m 1.582031,0.1367188 q 0,1.08723951 0.449219,1.70572908 0.449219,0.61197915 1.25,0.61197915 0.800781,0 1.24349,-0.62499998 0.449218,-0.62499999 0.449218,-1.82942705 0,-1.0677083 -0.462239,-1.6927083 -0.455729,-0.625 -1.24349,-0.625 -0.774739,0 -1.230469,0.6184896 -0.455729,0.6119792 -0.455729,1.8359375 z"
       style="font-style:normal;font-variant:normal;font-weight:500;font-stretch:normal;font-family:Roboto;-inkscape-font-specification:'Roboto Medium';fill:#81d742;fill-opacity:1"
       id="path860" />
    <path
       d="m 63.816401,-4.1179814 q -0.3125,-0.052083 -0.644531,-0.052083 -1.08724,0 -1.464844,0.8333333 v 4.8177082 h -1.582031 v -7.0442707 h 1.510417 l 0.03906,0.7877604 q 0.572917,-0.9179687 1.588542,-0.9179687 0.338541,0 0.559895,0.091146 z"
       style="font-style:normal;font-variant:normal;font-weight:500;font-stretch:normal;font-family:Roboto;-inkscape-font-specification:'Roboto Medium';fill:#81d742;fill-opacity:1"
       id="path862" />
    <path
       d="m 67.104162,-1.5398565 -0.703125,0.72265628 V 1.4809768 H 64.819005 V -8.519023 h 1.582032 v 5.7682291 l 0.494791,-0.6184896 1.946615,-2.1940104 h 1.901041 l -2.617187,2.9361979 2.897135,4.1080728 h -1.829427 z"
       style="font-style:normal;font-variant:normal;font-weight:500;font-stretch:normal;font-family:Roboto;-inkscape-font-specification:'Roboto Medium';fill:#81d742;fill-opacity:1"
       id="path864" />
  </g>
</svg>
