<?xml version="1.0" encoding="UTF-8" standalone="no"?>
<svg
   xmlns:dc="http://purl.org/dc/elements/1.1/"
   xmlns:cc="http://creativecommons.org/ns#"
   xmlns:rdf="http://www.w3.org/1999/02/22-rdf-syntax-ns#"
   xmlns:svg="http://www.w3.org/2000/svg"
   xmlns="http://www.w3.org/2000/svg"
   xmlns:xlink="http://www.w3.org/1999/xlink"
   xmlns:sodipodi="http://sodipodi.sourceforge.net/DTD/sodipodi-0.dtd"
   xmlns:inkscape="http://www.inkscape.org/namespaces/inkscape"
   width="300px"
   height="283px"
   viewBox="0 0 300 283"
   version="1.1"
   id="svg339"
   sodipodi:docname="tutorial-computer.svg"
   inkscape:version="0.92.3 (2405546, 2018-03-11)">
  <metadata
     id="metadata343">
    <rdf:RDF>
      <cc:Work
         rdf:about="">
        <dc:format>image/svg+xml</dc:format>
        <dc:type
           rdf:resource="http://purl.org/dc/dcmitype/StillImage" />
      </cc:Work>
    </rdf:RDF>
  </metadata>
  <sodipodi:namedview
     pagecolor="#ffffff"
     bordercolor="#666666"
     borderopacity="1"
     objecttolerance="10"
     gridtolerance="10"
     guidetolerance="10"
     inkscape:pageopacity="0"
     inkscape:pageshadow="2"
     inkscape:window-width="1366"
     inkscape:window-height="705"
     id="namedview341"
     showgrid="false"
     inkscape:zoom="1.1793442"
     inkscape:cx="93.001705"
     inkscape:cy="181.47298"
     inkscape:window-x="0"
     inkscape:window-y="354"
     inkscape:window-maximized="1"
     inkscape:current-layer="g69" />
  <!-- Generator: Sketch 48.2 (47327) - http://www.bohemiancoding.com/sketch -->
  <title
     id="title2">COMP_ICONS</title>
  <desc
     id="desc4">Created with Sketch.</desc>
  <defs
     id="defs18">
    <linearGradient
       x1="55.9711635%"
       y1="84.1022605%"
       x2="55.9711635%"
       y2="18.8472842%"
       id="linearGradient-1">
      <stop
         stop-color="#578FFF"
         offset="0%"
         id="stop6" />
      <stop
         stop-color="#3967CF"
         offset="100%"
         id="stop8" />
    </linearGradient>
    <polygon
       id="path-2"
       points="13.9313012 3.37829504 21.7585007 7.92909364 13.4106219 13.3556051 4.85287794 8.37308022" />
    <polygon
       id="path-3"
       points="13.9313012 3.37829504 21.7585007 7.92909364 13.4106219 13.3556051 4.85287794 8.37308022" />
    <radialGradient
       cx="169.52424"
       cy="56.959912"
       fx="169.52424"
       fy="56.959912"
       r="187.25105"
       gradientTransform="scale(0.83025321,1.2044518)"
       id="radialGradient-4"
       gradientUnits="userSpaceOnUse">
      <stop
         stop-color="#82AEFE"
         offset="0%"
         id="stop13" />
      <stop
         stop-color="#C4D9FF"
         offset="100%"
         id="stop15" />
    </radialGradient>
    <linearGradient
       inkscape:collect="always"
       xlink:href="#linearGradient-1"
       id="linearGradient1364"
       x1="10.997326"
       y1="15.320205"
       x2="10.997326"
       y2="6.8452786"
       gradientTransform="scale(1.3016939,0.76822979)"
       gradientUnits="userSpaceOnUse" />
  </defs>
  <g
     id="Page-1"
     stroke="none"
     stroke-width="1"
     fill="none"
     fill-rule="evenodd">
    <g
       id="COMP_ICONS"
       transform="translate(-110.000000, -34.000000)">
      <g
         transform="translate(361,101)"
         id="LOCK">
        <rect
           style="fill:#91f24a;fill-opacity:1"
           height="66"
           width="1"
           y="30"
           x="37"
           id="Rectangle-10" />
        <polygon
           style="fill:#91f24a;fill-opacity:1"
           points="19.952751,127.46578 18.952751,127.46578 18.972665,84.997631 19.972665,84.997631 "
           transform="rotate(60,19.462708,106.23171)"
           id="polygon21" />
        <g
           transform="translate(13)"
           id="koshel2">
          <path
             style="fill:#81d742;fill-opacity:1"
             inkscape:connector-curvature="0"
             id="Rectangle-32"
             d="M 7.0177378,14.498669 28.079749,2.1038814 c 0.951961,-0.5602193 2.177824,-0.2426505 2.738044,0.7093097 0.180919,0.3074298 0.276323,0.6576526 0.276323,1.0143666 V 21.785388 c 0,0.681745 -0.34727,1.316533 -0.921369,1.684209 L 9.1107349,36.958505 C 8.1805725,37.554216 6.9436077,37.283089 6.3478965,36.352927 6.1416963,36.030959 6.0321045,35.656634 6.0321045,35.274297 V 16.222346 c 0,-0.708594 0.3749405,-1.36429 0.9856333,-1.723677 z" />
          <path
             style="fill:#93b6ff"
             inkscape:connector-curvature="0"
             id="Oval-5"
             d="m 31,4 c 1.104569,0 2.914337,-0.695518 2.914337,-1.2478027 0,-0.5522848 -1.397231,-1.1585389 -2.5018,-1.1585389 C 30.307967,1.5936584 29,2.4477153 29,3 c 0,0.5522848 0.89543,1 2,1 z" />
          <path
             style="fill:#7acc3f;fill-opacity:1"
             inkscape:connector-curvature="0"
             id="path25"
             d="M 8.0363599,14.502181 30.133685,1.8165168 c 0.957938,-0.5499346 2.180311,-0.2191822 2.730245,0.7387561 0.09446,0.1645469 0.165032,0.3416986 0.209583,0.526128 l 0.33115,1.3708696 -1.238901,17.4196175 c -0.04507,0.633768 -0.388605,1.208416 -0.92551,1.548162 -14.707265,9.306538 -22.6266632,14.118467 -23.7581963,14.435785 0,0 0,0 0,0 v 0 c -0.188391,0.05283 -0.3839398,-0.05706 -0.4367706,-0.245453 -0.00873,-0.03114 -0.013159,-0.06332 -0.013159,-0.09566 L 7.0321046,16.23668 c 0,-0.716286 0.3830563,-1.377882 1.0042554,-1.7345 z" />
          <path
             style="fill:#81d742;fill-opacity:1"
             inkscape:connector-curvature="0"
             id="path27"
             d="M 9.0296156,15.435112 32.091627,2.0760128 c 0.955791,-0.5536594 2.179441,-0.2276678 2.733101,0.7281226 0.176462,0.3046294 0.269388,0.6504405 0.269388,1.0024888 V 21.596579 c 0,0.731128 -0.398951,1.403991 -1.040433,1.754774 L 7.442749,37.903076 v 0 c -0.1539713,0.05277 -0.3215711,-0.02926 -0.3743445,-0.183235 -0.041027,-0.1197 -0.00106,-0.252231 0.099295,-0.329298 0.5762755,-0.442493 0.8644047,-0.674447 0.8644047,-0.695841 0,-6.509659 0,-13.019319 0,-19.528979 v 0 c 0,-0.713504 0.3801119,-1.372971 0.9975114,-1.730611 z" />
          <path
             style="fill:#7acc3f;fill-opacity:1"
             inkscape:connector-curvature="0"
             id="path29"
             d="M 10.034948,15.501905 32.435059,2.6181641 v 0 c 0.448597,-0.348322 1.094627,-0.2670331 1.442949,0.1815639 0.140075,0.1803994 0.216108,0.4022966 0.216108,0.6306928 v 1.560485 17.7944822 c 0,0.681745 -0.34727,1.316533 -0.921369,1.684209 L 12.110735,37.958505 C 11.180573,38.554216 9.9436077,38.283089 9.3478965,37.352927 9.1416963,37.030959 9.0321045,36.656634 9.0321045,36.274297 V 17.235595 c 0,-0.715704 0.3824396,-1.376856 1.0028435,-1.73369 z" />
          <g
             transform="translate(6,1)"
             id="Group-10">
            <path
               style="fill:#81d742;fill-opacity:1"
               inkscape:connector-curvature="0"
               id="Path-2"
               d="m 29.101868,4.5040283 c 0,-3.0036011 0.02594,-3.2480469 -1.065003,-3.73663328 C 26.945923,0.27880859 25.060577,0.1925354 23.540039,0.55401611 22.526347,0.79500326 21.748616,1.2361247 21.206848,1.8773804 c 0.85982,-0.4158397 1.580828,-0.6648835 2.163025,-0.7471314 0.987826,-0.13955185 2.33518,-0.2304923 3.467774,0.1184082 1.750524,0.5392572 0.195094,1.3132019 -0.844727,1.9753418 -0.861475,0.5485721 -1.692505,1.0603028 -1.471314,1.1760254 0.139292,0.072874 4.580262,3.107605 4.580262,0.1040039 z" />
            <path
               style="fill:#8ae546;fill-opacity:1"
               inkscape:connector-curvature="0"
               id="path32"
               d="M 4.9824145,15.519457 26.079749,3.1038814 c 0.951961,-0.5602193 2.177824,-0.2426505 2.738044,0.7093097 0.180919,0.3074297 0.276323,0.6576526 0.276323,1.0143666 l -1e-6,17.9432023 c 0,0.689774 -0.355437,1.330865 -0.940464,1.696285 -11.270547,7.039821 -18.7716342,11.683781 -22.5032604,13.931881 0,0 0,0 0,0 v 0 C 4.9295621,38.833185 3.9931782,38.600875 3.5589187,37.880047 3.3651214,37.558362 3.2969484,37.176439 3.3674823,36.807572 c 0.00618,-0.03266 0.00985,-0.05697 0.010936,-0.07295 0.011851,-0.173869 0.218295,-6.691809 0.619331,-19.553822 l 7.2e-6,10e-7 c 0.021391,-0.686056 0.3931017,-1.313216 0.9846583,-1.661341 z" />
            <rect
               style="fill:#6bb237;fill-opacity:1"
               rx="1"
               height="23"
               width="2"
               y="14"
               x="0"
               id="Rectangle-11" />
            <path
               style="fill:#6bb237;fill-opacity:1"
               inkscape:connector-curvature="0"
               id="path35"
               d="m 4,15 h 1 c 0.5522847,0 1,0.447715 1,1 v 21.610107 c 0,0.552285 -0.4477153,1 -1,1 H 4 c -0.5522847,0 -1,-0.447715 -1,-1 V 16 c 0,-0.552285 0.4477153,-1 1,-1 z" />
            <g
               transform="translate(0,21)"
               id="Group-7">
              <path
                 style="fill:#91f24a;fill-opacity:1"
                 inkscape:connector-curvature="0"
                 id="Path-52"
                 d="M 0.03717196,1.4141215 C 2.361878,2.483825 3.8368734,3.0186768 4.4621582,3.0186768 c 0.9379272,0 5.2181827,-2.72821068 5.2677612,-2.76647953 0.049579,-0.0382689 1.0517576,-0.23660279 1.0517576,0.69296264 0,0.58987739 0,2.31979179 0,5.25875859 0,0.2669067 -0.188253,0.5201924 -0.564758,0.7598571 -3.1911215,2.0258179 -5.1093751,3.0387264 -5.7547608,3.0387264 -0.6453857,0 -2.1260364,-0.5371855 -4.44195189,-1.6115574 z" />
              <path
                 style="fill:#81d742;fill-opacity:1"
                 inkscape:connector-curvature="0"
                 id="Oval-8"
                 d="M 7.8868408,6.8280029 C 8.9057226,6.4639817 9.7663922,5.2734538 9.8092003,4.1688843 9.8520083,3.0643148 8.9912806,2.4639817 7.8867111,2.8280029 6.7821416,3.1920241 5.921472,4.3825521 5.9643516,5.4871216 6.0072313,6.5916911 6.867959,7.1920241 7.8868408,6.8280029 Z" />
            </g>
          </g>
          <g
             id="g41" />
        </g>
      </g>
      <g
         transform="translate(323,34)"
         id="g79">
        <g
           id="Group-5">
          <g
             id="Group-4">
            <g
               id="MONEY">
              <rect
                 style="fill:#91f24a;fill-opacity:1"
                 height="75"
                 width="1"
                 y="22"
                 x="13"
                 id="rect45" />
              <polygon
                 style="fill:#91f24a;fill-opacity:1"
                 points="7.9731892,107.62204 6.9731892,107.62204 6.9731892,92.98957 7.9731892,92.98957 "
                 transform="rotate(63,7.473189,100.30581)"
                 id="polygon47" />
              <g
                 id="Group-8">
                <g
                   id="g57"
                   transform="translate(0.277056,3.482993)">
                  <path
                     style="fill:#5c992f;fill-opacity:1"
                     inkscape:connector-curvature="0"
                     id="Oval-4"
                     d="m 13.24875,19.29679 c 7.317082,0 13.248749,-3.920221 13.248749,-8.756058 0,-4.8358372 -5.931667,-8.7560578 -13.248749,-8.7560578 C 5.9316673,1.7846742 0,5.7048948 0,10.540732 0,15.376569 5.9316673,19.29679 13.24875,19.29679 Z" />
                  <path
                     style="fill:#97fc4e;fill-opacity:1"
                     inkscape:connector-curvature="0"
                     id="path50"
                     d="m 13.24875,17.512116 c 7.317082,0 13.248749,-3.920221 13.248749,-8.7560582 C 26.497499,3.9202206 20.565832,0 13.24875,0 5.9316673,0 0,3.9202206 0,8.7560578 0,13.591895 5.9316673,17.512116 13.24875,17.512116 Z" />
                  <g
                     id="Rectangle-19">
                    <use
                       height="100%"
                       width="100%"
                       y="0"
                       x="0"
                       style="fill:#578fff;fill-rule:evenodd"
                       id="use52"
                       xlink:href="#path-2" />
                    <path
                       inkscape:connector-curvature="0"
                       style="stroke:url(#linearGradient1364);stroke-width:1"
                       id="path54"
                       d="M 13.924507,3.9527124 5.8677542,8.385393 13.396191,12.76863 20.80457,7.9528377 Z" />
                  </g>
                </g>
                <g
                   id="g69"
                   transform="translate(2.493506)">
                  <path
                     style="fill:#5c992f;fill-opacity:1"
                     inkscape:connector-curvature="0"
                     id="path59"
                     d="m 13.24875,19.29679 c 7.317082,0 13.248749,-3.920221 13.248749,-8.756058 0,-4.8358372 -5.931667,-8.7560578 -13.248749,-8.7560578 C 5.9316673,1.7846742 0,5.7048948 0,10.540732 0,15.376569 5.9316673,19.29679 13.24875,19.29679 Z" />
                  <path
                     style="fill:#97fc4d;fill-opacity:1"
                     inkscape:connector-curvature="0"
                     id="path61"
                     d="m 13.24875,17.512116 c 7.317082,0 13.248749,-3.920221 13.248749,-8.7560582 C 26.497499,3.9202206 20.565832,0 13.24875,0 5.9316673,0 0,3.9202206 0,8.7560578 0,13.591895 5.9316673,17.512116 13.24875,17.512116 Z" />
                </g>
              </g>
            </g>
          </g>
        </g>
        <g
           transform="translate(24,9)"
           id="g77">
          <g
             transform="translate(0,9)"
             id="g75" />
        </g>
      </g>
      <g
         transform="translate(130.65417,80.227417)"
         id="g85">
        <polygon
           style="fill:#81d742;fill-opacity:1"
           points="4.7001953,15.5224 0.20019531,13.142273 0.1829834,2.5513916 4.7001953,5.0831909 "
           id="Rectangle-31" />
        <polygon
           style="fill:#5c992f;fill-opacity:1"
           points="9,13.36023 4.6926727,15.522141 4.6926727,5.0787048 9,2.7547607 "
           id="polygon82" />
        <polygon
           style="fill:#73bf3b;fill-opacity:1"
           points="4.693573,5.0949249 0.18426514,2.5545959 4.602562,0.26895142 8.9965363,2.7559967 "
           id="Rectangle-33" />
      </g>
      <rect
         style="fill:#81d742;fill-opacity:1"
         height="12"
         width="1"
         y="71.227417"
         x="134.65417"
         id="rect87" />
      <rect
         style="fill:#81d742;fill-opacity:1"
         height="12"
         width="1"
         y="81"
         x="144.65417"
         id="rect89" />
      <g
         id="g103"
         transform="translate(150.65417,61.227417)">
        <g
           id="g99"
           transform="translate(0,9)">
          <polygon
             id="polygon93"
             points="0.1829834,2.5513916 4.7001953,5.0831909 4.7001953,15.5224 0.20019531,13.142273 "
             style="fill:#81d742;fill-opacity:1" />
          <polygon
             id="polygon95"
             points="4.6926727,5.0787048 9,2.7547607 9,13.36023 4.6926727,15.522141 "
             style="fill:#6bb237;fill-opacity:1" />
          <polygon
             id="polygon97"
             points="4.602562,0.26895142 8.9965363,2.7559967 4.693573,5.0949249 0.18426514,2.5545959 "
             style="fill:#7acc3f;fill-opacity:1" />
        </g>
        <rect
           id="rect101"
           x="4"
           y="0"
           width="1"
           height="12"
           style="fill:#81d742;fill-opacity:1" />
      </g>
      <g
         id="dex-icon"
         transform="translate(130.15417,63.227417)">
        <g
           id="dex-2222222"
           transform="translate(10)">
          <polygon
             id="polygon105"
             points="0.6829834,2.5513916 5.2001953,5.0831909 5.2001953,18.5224 0.70019531,16.142273 "
             style="fill:#6bb237;fill-opacity:1" />
          <polygon
             id="polygon107"
             points="5.1926727,5.0787048 9.5,2.7547607 9.5,16.360229 5.1926727,18.52214 "
             style="fill:#8ae546;fill-opacity:1" />
          <polygon
             id="polygon109"
             points="5.102562,0.26895142 9.4965363,2.7559967 5.193573,5.0949249 0.68426514,2.5545959 "
             style="fill:#7acc3f;fill-opacity:1" />
        </g>
        <g
           id="dex-3"
           transform="translate(0,18)" />
      </g>
      <rect
         id="rect114"
         x="144.65417"
         y="59.227417"
         width="1"
         height="7"
         style="fill:#81d742;fill-opacity:1" />
      <g
         style="fill:#c4d9ff"
         transform="translate(136,65)"
         id="KOSHEL">
        <rect
           height="48"
           width="1"
           y="28"
           x="8.6659546"
           id="rect118"
           style="fill:#91f24a;fill-opacity:1" />
        <polygon
           points="30.819157,112.83764 29.819157,112.83764 29.819157,63.408286 30.819157,63.408286 "
           transform="rotate(120,30.319157,88.122964)"
           id="polygon120"
           style="fill:#91f24a;fill-opacity:1" />
      </g>
      <g
         id="Podstavka-1"
         transform="translate(109.43564,63.029703)">
        <polygon
           id="Rectangle-4"
           points="0.61150609,125.65917 252.92079,126.76253 252.92079,180.89657 0.61150609,179.81832 "
           style="fill:#81d642;fill-opacity:0.5" />
        <polygon
           id="Rectangle-Copy-3"
           transform="rotate(45,126.78218,180.3651)"
           points="74.053176,129.59334 216.40038,91.539748 178.73339,232.34945 37.163978,269.19045 "
           style="fill:#91f24a;fill-opacity:1" />
        <polygon
           id="polygon126"
           transform="rotate(45,126.78218,168.34424)"
           points="74.053176,117.57247 216.40038,79.518885 178.73339,220.32858 37.163978,257.16959 "
           style="fill:#8ae546;fill-opacity:1" />
        <polygon
           id="Rectangle"
           transform="rotate(45,126.78218,154.30251)"
           points="74.053176,103.53075 216.40038,65.477159 178.73339,206.28686 37.163978,243.12786 "
           style="fill:#81d642;fill-opacity:1" />
        <polygon
           id="polygon129"
           transform="rotate(45,126.78218,138.23992)"
           points="74.053176,87.468159 216.40038,49.414571 178.73339,190.22427 37.163978,227.06527 "
           style="fill:#6bb237;fill-opacity:1" />
        <polygon
           id="Rectangle-Copy"
           transform="rotate(45,126.78218,126.21906)"
           points="74.053176,75.447296 216.40038,37.393708 178.73339,178.20341 37.163978,215.04441 "
           style="fill:#91f24a;fill-opacity:1" />
      </g>
      <path
         d="m 144.47424,177.80054 c 0,1.93917 -0.7893,5.09533 2.14726,6.96414 1.95771,1.24587 4.20703,2.64013 6.74795,4.18279 l 88.66365,51.35943 c 2.17379,1.51075 4.39137,2.26612 6.65274,2.26612 0.46903,0 2.15603,0.20658 4.56564,-1.15955 6.42288,-3.64147 31.43509,-17.90894 75.03661,-42.80241 0,-1.79249 0,-2.86401 0,-3.21458 0,-0.35056 -36.55099,-21.3045 -109.65297,-62.86183 l -73.01268,41.78615 c -0.76547,1.02704 -1.1482,2.18695 -1.1482,3.47974 z"
         id="Path-44"
         inkscape:connector-curvature="0"
         style="fill:#63a633;fill-opacity:1" />
      <path
         d="m 219.02923,131.95543 c -43.02683,24.79038 -66.66261,38.42767 -70.90733,40.91187 -0.36887,0.21588 -1.45311,0.83758 -1.74705,0.98379 -2.20078,1.0947 -1.48728,3.88667 -1.20468,4.4512 0.28261,0.56454 0.82039,0.95055 1.36965,1.23861 1.26772,0.66485 2.41014,1.46177 4.86997,2.77139 0.39266,0.20905 1.64908,1.01052 3.4157,2.02496 6.37895,3.66296 36.04139,20.90739 88.98731,51.7333 1.33958,0.72509 2.40657,1.12995 3.20097,1.21459 1.19159,0.12695 2.70537,0.32156 4.10385,-0.14461 0.46008,-0.15337 0.93402,-0.23639 2.08989,-0.81811 0.77059,-0.38782 2.20487,-1.1924 4.30283,-2.41373 l 70.09362,-39.47967 -108.24797,-63.1815 z"
         id="Path-43"
         inkscape:connector-curvature="0"
         style="fill:#73bf3b;fill-opacity:1" />
      <path
         d="m 328.24752,198.82178 -9.9e-4,-94.49568 c -0.0726,-2.37755 -0.27646,-4.04339 -0.61167,-4.997526 -0.50283,-1.431199 -0.68393,-1.956935 -1.36924,-3.051356 -0.7462,-1.19165 -1.65438,-2.145333 -2.01528,-2.450041 -0.51715,-0.436642 -1.09524,-0.945441 -1.70712,-1.372072 -0.54729,-0.381596 -1.44896,-0.919258 -2.70499,-1.612986 l -94.10982,-54.01199 c -1.01921,-0.693596 -1.88545,-0.952553 -2.59872,-0.776871 -1.0699,0.263524 -3.30348,1.816292 -3.86503,2.416834 -0.37436,0.400362 -0.50028,1.107233 -0.37776,2.120615 l 0.37776,91.906223 z"
         id="Path-46"
         inkscape:connector-curvature="0"
         style="fill:#73bf3b;fill-opacity:1" />
      <path
         d="m 218.84158,132.43163 0.12576,-91.356182 c -0.0119,-0.449155 -0.0119,-0.750364 0,-0.903628 0.0266,-0.341581 0.10421,-0.501846 0.14571,-0.66163 0.0463,-0.178155 0.21743,-0.498535 0.4627,-0.773268 0.30677,-0.343623 0.73409,-0.637455 1.23077,-0.74041 0.001,-3.12e-4 0.12899,-0.04057 0.3444,-0.0581 0.11269,-0.0092 0.26909,-0.01134 0.40191,0 0.0507,0.0043 0.24871,0.01229 0.4717,0.07616 0.0964,0.02762 0.22623,0.07472 0.34767,0.13119 0.15937,0.0741 0.30617,0.159736 0.3623,0.192542 0.32006,0.187039 1.11577,0.642859 2.38713,1.367463 l 94.49133,54.038971 c 0.58868,0.362496 1.00906,0.633699 1.26113,0.813606 0.79833,0.569774 1.41385,1.119092 1.86959,1.588359 0.41528,0.427596 0.84624,0.873121 1.66011,2.144242 0.81386,1.271122 1.24595,2.611555 1.46521,3.424595 0.15301,0.56738 0.44783,2.09407 0.44783,3.10621 0,0.67476 0,2.17733 0,4.50773 v 84.98735 z"
         id="Path-45"
         style="fill:#81d742;fill-opacity:1"
         inkscape:connector-curvature="0" />
      <polygon
         id="Rectangle-8"
         points="123.56436,12.227723 214.95049,64.622454 214.95049,144.80198 123.56436,92.343768 "
         style="fill:#96fa4d;fill-opacity:1"
         transform="translate(103,36)" />
      <polygon
         id="Rectangle-9"
         points="113.6276,102.9703 207.87129,157.16139 164.17326,182.12871 70.792079,128.33883 "
         style="fill:#81d742;fill-opacity:1"
         transform="translate(103,36)" />
      <g
         id="KLAVA-wrp"
         transform="translate(186,144)">
        <g
           id="KLAVA"
           transform="rotate(0.5,-186.63166,79.963273)"
           style="fill:#8eb7ff">
          <polygon
             id="Rectangle-30"
             points="27.729437,0.23074168 33.551671,3.5820288 27.698471,7.5937235 21.878935,4.2597502 "
             style="fill:#6bb237;fill-opacity:1" />
          <polygon
             id="polygon140"
             points="35.006788,4.4190575 40.825493,7.7639001 34.968921,11.753882 29.152914,8.4264158 "
             style="fill:#6bb237;fill-opacity:1" />
          <polygon
             id="polygon142"
             points="42.279729,8.5992762 48.094904,11.937343 42.23496,15.905532 36.422482,12.584905 "
             style="fill:#6bb237;fill-opacity:1" />
          <polygon
             id="polygon144"
             points="49.548257,12.770984 55.359903,16.101943 49.496586,20.048261 43.687638,16.734805 "
             style="fill:#6bb237;fill-opacity:1" />
          <polygon
             id="polygon146"
             points="56.812373,16.933765 62.620489,20.257286 56.753798,24.181654 50.948381,20.8757 "
             style="fill:#6bb237;fill-opacity:1" />
          <polygon
             id="polygon148"
             points="64.072076,21.087207 69.87666,24.402958 64.006597,28.305298 58.204711,25.007176 "
             style="fill:#6bb237;fill-opacity:1" />
          <polygon
             id="polygon150"
             points="71.327365,25.230895 77.128416,28.538545 71.25498,32.418776 65.456626,29.12882 "
             style="fill:#6bb237;fill-opacity:1" />
          <polygon
             id="polygon152"
             points="78.578238,29.364415 84.375757,32.663631 78.498947,36.521677 72.704126,33.240216 "
             style="fill:#6bb237;fill-opacity:1" />
          <polygon
             id="polygon154"
             points="85.824695,33.487352 91.61868,36.777804 85.738496,40.613584 79.94721,37.340951 "
             style="fill:#6bb237;fill-opacity:1" />
          <polygon
             id="polygon156"
             points="93.066735,37.599293 98.857186,40.880649 92.973628,44.694085 87.185876,41.43061 "
             style="fill:#6bb237;fill-opacity:1" />
          <polygon
             id="polygon158"
             points="100.30436,41.699822 111.87536,48.2359 105.98573,52.008918 94.420124,45.50878 "
             style="fill:#6bb237;fill-opacity:1" />
          <polygon
             id="polygon160"
             points="98.768006,56.760823 90.100029,51.922326 95.985767,48.16295 104.65779,53.028128 "
             style="fill:#6bb237;fill-opacity:1" />
          <polygon
             id="polygon162"
             points="88.654747,51.114185 82.871854,47.87682 88.754219,44.095297 94.539811,47.350374 "
             style="fill:#6bb237;fill-opacity:1" />
          <polygon
             id="polygon164"
             points="81.425688,47.066294 75.639259,43.819551 81.518251,40.015961 87.307378,43.280351 "
             style="fill:#6bb237;fill-opacity:1" />
          <polygon
             id="polygon166"
             points="74.19221,43.006723 68.402247,39.750935 74.277866,35.925355 80.070527,39.198728 "
             style="fill:#6bb237;fill-opacity:1" />
          <polygon
             id="polygon168"
             points="66.954314,38.935886 61.160818,35.671385 67.033064,31.823895 72.829259,35.105918 "
             style="fill:#6bb237;fill-opacity:1" />
          <polygon
             id="polygon170"
             points="59.712002,34.854199 53.914973,31.581315 59.783846,27.711993 65.583574,31.002336 "
             style="fill:#6bb237;fill-opacity:1" />
          <polygon
             id="polygon172"
             points="52.465274,30.762075 46.664713,27.481139 52.530214,23.590065 58.333473,26.888396 "
             style="fill:#6bb237;fill-opacity:1" />
          <polygon
             id="polygon174"
             points="45.214131,26.659928 39.410038,23.371272 45.272167,19.458525 51.078957,22.764513 "
             style="fill:#6bb237;fill-opacity:1" />
          <polygon
             id="polygon176"
             points="37.958574,22.548172 32.150951,19.252129 38.009707,15.317786 43.820028,18.6311 "
             style="fill:#6bb237;fill-opacity:1" />
          <polygon
             id="polygon178"
             points="30.698604,18.427223 24.88745,15.124122 30.742835,11.168264 36.556686,14.488571 "
             style="fill:#6bb237;fill-opacity:1" />
          <polygon
             id="polygon180"
             points="23.434221,14.297494 14.711139,9.3308124 20.561804,5.344964 29.288932,10.337342 "
             style="fill:#6bb237;fill-opacity:1" />
          <polygon
             id="polygon182"
             points="84.04323,65.953009 75.385372,61.180179 81.271288,57.501138 89.933193,62.300058 "
             style="fill:#6bb237;fill-opacity:1" />
          <polygon
             id="polygon184"
             points="73.941776,60.382955 68.165628,57.189178 74.048172,53.488483 79.827018,56.699577 "
             style="fill:#6bb237;fill-opacity:1" />
          <polygon
             id="polygon186"
             points="66.721148,56.38953 60.941464,53.186218 66.820636,49.463947 72.603018,52.684513 "
             style="fill:#6bb237;fill-opacity:1" />
          <polygon
             id="polygon188"
             points="59.496101,52.384227 24.754392,33.006523 30.616706,29.177557 65.374599,48.657651 "
             style="fill:#6bb237;fill-opacity:1" />
          <polygon
             id="polygon190"
             points="23.304613,32.194064 17.503732,28.940505 23.362676,25.090437 29.166253,28.360871 "
             style="fill:#6bb237;fill-opacity:1" />
          <polygon
             id="polygon192"
             points="16.053071,28.126201 10.24866,24.865427 16.104233,20.994335 21.91134,24.271921 "
             style="fill:#6bb237;fill-opacity:1" />
          <polygon
             id="polygon194"
             points="8.7971164,24.04936 0.084147632,19.145885 5.9350012,15.245493 14.652015,20.174073 "
             style="fill:#6bb237;fill-opacity:1" />
          <polygon
             id="polygon196"
             points="91.405673,61.381836 85.631102,58.180183 94.020307,52.883119 99.798723,56.109904 "
             style="fill:#6bb237;fill-opacity:1" />
          <polygon
             id="polygon198"
             points="84.187017,57.378517 78.408911,54.166944 84.292714,50.434586 90.07352,53.663698 "
             style="fill:#6bb237;fill-opacity:1" />
          <polygon
             id="polygon200"
             points="76.963942,53.362839 71.1823,50.141678 77.062731,46.387467 82.847071,49.626104 "
             style="fill:#6bb237;fill-opacity:1" />
          <polygon
             id="polygon202"
             points="69.736447,49.335218 63.95127,46.1048 69.828329,42.328814 75.616204,45.576646 "
             style="fill:#6bb237;fill-opacity:1" />
          <polygon
             id="polygon204"
             points="62.504534,45.296067 56.715823,42.056724 62.589509,38.259042 68.380918,41.515736 "
             style="fill:#6bb237;fill-opacity:1" />
          <polygon
             id="polygon206"
             points="55.268204,41.245801 49.47596,37.997864 55.346274,34.178565 61.141216,37.44379 "
             style="fill:#6bb237;fill-opacity:1" />
          <polygon
             id="polygon208"
             points="48.027457,37.184834 42.23168,33.928634 48.098622,30.087798 53.897097,33.361222 "
             style="fill:#6bb237;fill-opacity:1" />
          <polygon
             id="polygon210"
             points="40.782295,33.11358 34.982986,29.849448 40.846557,25.987153 46.648562,29.268446 "
             style="fill:#6bb237;fill-opacity:1" />
          <polygon
             id="polygon212"
             points="33.532718,29.032453 27.729879,25.760722 33.590077,21.877046 39.395614,25.165876 "
             style="fill:#6bb237;fill-opacity:1" />
          <polygon
             id="polygon214"
             points="26.278727,24.941868 20.472358,21.662868 26.329185,17.757891 32.138252,21.053926 "
             style="fill:#6bb237;fill-opacity:1" />
          <polygon
             id="polygon216"
             points="19.020324,20.842239 7.3977027,14.265054 13.248462,10.321933 24.876477,16.933011 "
             style="fill:#6bb237;fill-opacity:1" />
        </g>
        <g
           id="g299"
           transform="rotate(0.5,-72.040827,79.463273)"
           style="fill:#003fe3">
          <polygon
             id="polygon219"
             points="27.729437,0.23074168 33.551671,3.5820288 27.698471,7.5937235 21.878935,4.2597502 "
             style="fill:#4d8027;fill-opacity:1" />
          <polygon
             id="polygon221"
             points="35.006788,4.4190575 40.825493,7.7639001 34.968921,11.753882 29.152914,8.4264158 "
             style="fill:#4d8027;fill-opacity:1" />
          <polygon
             id="polygon223"
             points="42.279729,8.5992762 48.094904,11.937343 42.23496,15.905532 36.422482,12.584905 "
             style="fill:#4d8027;fill-opacity:1" />
          <polygon
             id="polygon225"
             points="49.548257,12.770984 55.359903,16.101943 49.496586,20.048261 43.687638,16.734805 "
             style="fill:#4d8027;fill-opacity:1" />
          <polygon
             id="polygon227"
             points="56.812373,16.933765 62.620489,20.257286 56.753798,24.181654 50.948381,20.8757 "
             style="fill:#4d8027;fill-opacity:1" />
          <polygon
             id="polygon229"
             points="64.072076,21.087207 69.87666,24.402958 64.006597,28.305298 58.204711,25.007176 "
             style="fill:#4d8027;fill-opacity:1" />
          <polygon
             id="polygon231"
             points="71.327365,25.230895 77.128416,28.538545 71.25498,32.418776 65.456626,29.12882 "
             style="fill:#4d8027;fill-opacity:1" />
          <polygon
             id="polygon233"
             points="78.578238,29.364415 84.375757,32.663631 78.498947,36.521677 72.704126,33.240216 "
             style="fill:#4d8027;fill-opacity:1" />
          <polygon
             id="polygon235"
             points="85.824695,33.487352 91.61868,36.777804 85.738496,40.613584 79.94721,37.340951 "
             style="fill:#4d8027;fill-opacity:1" />
          <polygon
             id="polygon237"
             points="93.066735,37.599293 98.857186,40.880649 92.973628,44.694085 87.185876,41.43061 "
             style="fill:#4d8027;fill-opacity:1" />
          <polygon
             id="polygon239"
             points="100.30436,41.699822 111.87536,48.2359 105.98573,52.008918 94.420124,45.50878 "
             style="fill:#4d8027;fill-opacity:1" />
          <polygon
             id="polygon241"
             points="98.768006,56.760823 90.100029,51.922326 95.985767,48.16295 104.65779,53.028128 "
             style="fill:#4d8027;fill-opacity:1" />
          <polygon
             id="polygon243"
             points="88.654747,51.114185 82.871854,47.87682 88.754219,44.095297 94.539811,47.350374 "
             style="fill:#4d8027;fill-opacity:1" />
          <polygon
             id="polygon245"
             points="81.425688,47.066294 75.639259,43.819551 81.518251,40.015961 87.307378,43.280351 "
             style="fill:#4d8027;fill-opacity:1" />
          <polygon
             id="polygon247"
             points="74.19221,43.006723 68.402247,39.750935 74.277866,35.925355 80.070527,39.198728 "
             style="fill:#4d8027;fill-opacity:1" />
          <polygon
             id="polygon249"
             points="66.954314,38.935886 61.160818,35.671385 67.033064,31.823895 72.829259,35.105918 "
             style="fill:#4d8027;fill-opacity:1" />
          <polygon
             id="polygon251"
             points="59.712002,34.854199 53.914973,31.581315 59.783846,27.711993 65.583574,31.002336 "
             style="fill:#4d8027;fill-opacity:1" />
          <polygon
             id="polygon253"
             points="52.465274,30.762075 46.664713,27.481139 52.530214,23.590065 58.333473,26.888396 "
             style="fill:#4d8027;fill-opacity:1" />
          <polygon
             id="polygon255"
             points="45.214131,26.659928 39.410038,23.371272 45.272167,19.458525 51.078957,22.764513 "
             style="fill:#4d8027;fill-opacity:1" />
          <polygon
             id="polygon257"
             points="37.958574,22.548172 32.150951,19.252129 38.009707,15.317786 43.820028,18.6311 "
             style="fill:#4d8027;fill-opacity:1" />
          <polygon
             id="polygon259"
             points="30.698604,18.427223 24.88745,15.124122 30.742835,11.168264 36.556686,14.488571 "
             style="fill:#4d8027;fill-opacity:1" />
          <polygon
             id="polygon261"
             points="23.434221,14.297494 14.711139,9.3308124 20.561804,5.344964 29.288932,10.337342 "
             style="fill:#4d8027;fill-opacity:1" />
          <polygon
             id="polygon263"
             points="84.04323,65.953009 75.385372,61.180179 81.271288,57.501138 89.933193,62.300058 "
             style="fill:#4d8027;fill-opacity:1" />
          <polygon
             id="polygon265"
             points="73.941776,60.382955 68.165628,57.189178 74.048172,53.488483 79.827018,56.699577 "
             style="fill:#4d8027;fill-opacity:1" />
          <polygon
             id="polygon267"
             points="66.721148,56.38953 60.941464,53.186218 66.820636,49.463947 72.603018,52.684513 "
             style="fill:#4d8027;fill-opacity:1" />
          <polygon
             id="polygon269"
             points="59.496101,52.384227 24.754392,33.006523 30.616706,29.177557 65.374599,48.657651 "
             style="fill:#4d8027;fill-opacity:1" />
          <polygon
             id="polygon271"
             points="23.304613,32.194064 17.503732,28.940505 23.362676,25.090437 29.166253,28.360871 "
             style="fill:#4d8027;fill-opacity:1" />
          <polygon
             id="polygon273"
             points="16.053071,28.126201 10.24866,24.865427 16.104233,20.994335 21.91134,24.271921 "
             style="fill:#4d8027;fill-opacity:1" />
          <polygon
             id="polygon275"
             points="8.7971164,24.04936 0.084147632,19.145885 5.9350012,15.245493 14.652015,20.174073 "
             style="fill:#4d8027;fill-opacity:1" />
          <polygon
             id="polygon277"
             points="91.405673,61.381836 85.631102,58.180183 94.020307,52.883119 99.798723,56.109904 "
             style="fill:#4d8027;fill-opacity:1" />
          <polygon
             id="polygon279"
             points="84.187017,57.378517 78.408911,54.166944 84.292714,50.434586 90.07352,53.663698 "
             style="fill:#4d8027;fill-opacity:1" />
          <polygon
             id="polygon281"
             points="76.963942,53.362839 71.1823,50.141678 77.062731,46.387467 82.847071,49.626104 "
             style="fill:#4d8027;fill-opacity:1" />
          <polygon
             id="polygon283"
             points="69.736447,49.335218 63.95127,46.1048 69.828329,42.328814 75.616204,45.576646 "
             style="fill:#4d8027;fill-opacity:1" />
          <polygon
             id="polygon285"
             points="62.504534,45.296067 56.715823,42.056724 62.589509,38.259042 68.380918,41.515736 "
             style="fill:#4d8027;fill-opacity:1" />
          <polygon
             id="polygon287"
             points="55.268204,41.245801 49.47596,37.997864 55.346274,34.178565 61.141216,37.44379 "
             style="fill:#4d8027;fill-opacity:1" />
          <polygon
             id="polygon289"
             points="48.027457,37.184834 42.23168,33.928634 48.098622,30.087798 53.897097,33.361222 "
             style="fill:#4d8027;fill-opacity:1" />
          <polygon
             id="polygon291"
             points="40.782295,33.11358 34.982986,29.849448 40.846557,25.987153 46.648562,29.268446 "
             style="fill:#4d8027;fill-opacity:1" />
          <polygon
             id="polygon293"
             points="33.532718,29.032453 27.729879,25.760722 33.590077,21.877046 39.395614,25.165876 "
             style="fill:#4d8027;fill-opacity:1" />
          <polygon
             id="polygon295"
             points="26.278727,24.941868 20.472358,21.662868 26.329185,17.757891 32.138252,21.053926 "
             style="fill:#4d8027;fill-opacity:1" />
          <polygon
             id="polygon297"
             points="19.020324,20.842239 7.3977027,14.265054 13.248462,10.321933 24.876477,16.933011 "
             style="fill:#4d8027;fill-opacity:1" />
        </g>
      </g>
      <polygon
         id="polygon302"
         points="91.345243,144.15842 128.06931,165.30616 111.04144,175.04951 74.653465,154.05833 "
         style="fill:#81d742;fill-opacity:1"
         transform="translate(103,36)" />
      <g
         transform="translate(235,67)"
         id="cont">
        <polygon
           style="fill:#f1f5ff"
           points="72.900879,93.990234 0.76757812,52.478516 1.3959961,0.083496094 72.900879,41.081055 "
           id="Rectangle-34" />
        <polygon
           style="fill:#81d742;fill-opacity:1"
           points="72.900879,44.86792 1.3959961,3.8786621 1.3959961,0.083496094 72.900879,41.081055 "
           id="polygon306" />
        <path
           style="fill:#73bf3b;fill-opacity:1"
           inkscape:connector-curvature="0"
           id="Oval-9"
           d="M 5.9224014,5.5050973 C 6.3357717,5.4443053 6.6004036,5.0599208 6.5134732,4.6465505 6.4265428,4.2331801 6.0209689,3.9473589 5.6075986,4.0081509 5.1942283,4.0689429 4.9295964,4.4533274 5.0165268,4.8666977 5.1034572,5.2800681 5.509031,5.5658893 5.9224014,5.5050973 Z" />
        <path
           style="fill:#96fa4c;fill-opacity:1"
           inkscape:connector-curvature="0"
           id="path309"
           d="M 7.9224014,6.5050973 C 8.3357717,6.4443053 8.6004036,6.0599208 8.5134732,5.6465505 8.4265428,5.2331801 8.0209689,4.9473589 7.6075986,5.0081509 7.1942283,5.0689429 6.9295964,5.4533274 7.0165268,5.8666977 7.1034572,6.2800681 7.509031,6.5658893 7.9224014,6.5050973 Z" />
        <path
           style="fill:#f1f5ff"
           inkscape:connector-curvature="0"
           id="path311"
           d="M 9.9224014,7.5050973 C 10.335772,7.4443053 10.600404,7.0599208 10.513473,6.6465505 10.426543,6.2331801 10.020969,5.9473589 9.6075986,6.0081509 9.1942283,6.0689429 8.9295964,6.4533274 9.0165268,6.8666977 9.1034572,7.2800681 9.509031,7.5658893 9.9224014,7.5050973 Z" />
        <polygon
           style="fill:#91f24a;fill-opacity:1"
           points="23,22 5,11.554443 5,9.5544434 23,20 "
           id="Rectangle-35" />
        <polygon
           style="fill:#91f24a;fill-opacity:1"
           points="26.990723,27.598267 5,14.932251 5,13.932251 26.990723,26.598267 "
           id="polygon314" />
        <polygon
           style="fill:#91f24a;fill-opacity:1"
           points="26.990723,29.598267 5,16.932251 5,15.932251 26.990723,28.598267 "
           id="polygon316" />
        <polygon
           style="fill:#91f24a;fill-opacity:1"
           points="26.990723,31.598267 5,18.932251 5,17.932251 26.990723,30.598267 "
           id="polygon318" />
        <path
           style="fill:#4d8027;fill-opacity:1"
           inkscape:connector-curvature="0"
           id="Path-53"
           d="m 1.0477295,32.659546 c 2.2500253,5.960451 4.5873055,9.402915 7.0118408,10.327392 3.6368027,1.386716 5.1076657,-4.468383 8.5123287,-4.297973 3.404663,0.17041 7.918213,16.234497 11.325562,16.234497 3.407349,0 3.949585,-13.823608 8.054077,-13.515381 2.298651,0.172618 4.298979,6.481346 6.161011,12.051514 1.598266,4.781128 3.954069,8.039521 5.279663,7.96997 1.049793,-0.05508 2.778277,-0.32287 3.683228,-1.074829 1.775512,-1.475342 2.933673,-3.138501 4.444091,-2.672729 2.318115,0.714844 6.762207,15.408569 10.769043,16.194336 2.671224,0.523844 4.863322,-1.371704 6.576294,-5.686646 V 93.967285 L 0.77490234,52.45398 Z" />
        <g
           style="opacity:0.5;fill:#e4ecff"
           transform="translate(7,24)"
           id="vert-lines">
          <polygon
             points="0.25,32.323013 0,32.040405 0,0 0.25,0 "
             id="Rectangle-36" />
          <polygon
             points="10.25,38.106964 10,37.838837 10,5 10.25,5 "
             id="polygon322" />
          <polygon
             points="20.25,44.323013 20,44.040405 20,11 20.25,11 "
             id="polygon324" />
          <polygon
             points="30.25,50.106964 30,49.838837 30,17 30.25,17 "
             id="polygon326" />
          <polygon
             points="39.25,55.323013 39,55.040405 39,22 39.25,22 "
             id="polygon328" />
          <polygon
             points="49.25,61.106964 49,60.838837 49,28 49.25,28 "
             id="polygon330" />
          <polygon
             points="58.25,66.106964 58,65.838837 58,33 58.25,33 "
             id="polygon332" />
        </g>
      </g>
    </g>
  </g>
</svg>
